<svg width="182" height="118" viewBox="0 0 182 118" fill="none" xmlns="http://www.w3.org/2000/svg">
<path fill-rule="evenodd" clip-rule="evenodd" d="M133.896 2.3877C135.277 2.3877 136.396 3.50698 136.396 4.8877V19.2866H122.18C120.799 19.2866 119.68 18.1673 119.68 16.7866C119.68 15.4059 120.799 14.2866 122.18 14.2866H131.396V4.8877C131.396 3.50698 132.515 2.3877 133.896 2.3877Z" fill="black"/>
<path fill-rule="evenodd" clip-rule="evenodd" d="M144.303 41.5703C142.922 41.5703 141.803 40.451 141.803 39.0703L141.803 24.6714L156.018 24.6714C157.399 24.6714 158.518 25.7907 158.518 27.1714C158.518 28.5521 157.399 29.6714 156.018 29.6714L146.803 29.6714L146.803 39.0703C146.803 40.451 145.683 41.5703 144.303 41.5703Z" fill="black"/>
<path fill-rule="evenodd" clip-rule="evenodd" d="M158.518 16.6952C158.518 18.0759 157.399 19.1952 156.018 19.1952L141.619 19.1952L141.619 4.97949C141.619 3.59878 142.739 2.47949 144.119 2.47949C145.5 2.47949 146.619 3.59878 146.619 4.97949L146.619 14.1952L156.018 14.1952C157.399 14.1952 158.518 15.3145 158.518 16.6952Z" fill="black"/>
<path fill-rule="evenodd" clip-rule="evenodd" d="M119.68 27.2628C119.68 25.8821 120.799 24.7628 122.18 24.7628L136.579 24.7628L136.579 38.9785C136.579 40.3592 135.46 41.4785 134.079 41.4785C132.698 41.4785 131.579 40.3592 131.579 38.9785L131.579 29.7628L122.18 29.7628C120.799 29.7628 119.68 28.6436 119.68 27.2628Z" fill="black"/>
<path opacity="0.1" d="M111.87 41.9473C111.87 38.6336 114.556 35.9473 117.87 35.9473H176C179.314 35.9473 182 38.6336 182 41.9473V53.0518C182 56.3655 179.314 59.0518 176 59.0518H117.87C114.556 59.0518 111.87 56.3655 111.87 53.0518V41.9473Z" fill="black"/>
<path d="M168.897 46.5599C168.8 46.5599 168.476 46.5628 168.385 46.5687L166.539 46.6186C166.519 46.6186 166.499 46.6098 166.491 46.5922L163.723 42.3168C163.64 42.1818 163.492 42.0996 163.339 42.0996H162.664C162.505 42.0996 162.451 42.2639 162.508 42.4165L163.933 46.6069C163.947 46.645 163.922 46.6861 163.882 46.6861L160.4 46.7389C160.326 46.7418 160.258 46.7066 160.212 46.6479L159.16 45.3275C159.074 45.213 158.941 45.1485 158.801 45.1485H158.323C158.244 45.1485 158.19 45.2277 158.215 45.304L158.781 47.3199C158.824 47.4314 158.824 47.5576 158.781 47.6691L158.215 49.685C158.19 49.7613 158.244 49.8406 158.323 49.8406H158.798C158.938 49.8406 159.072 49.7731 159.157 49.6616L160.229 48.3205C160.275 48.2619 160.346 48.2266 160.417 48.2296L163.879 48.3088C163.919 48.3117 163.945 48.3499 163.93 48.388L162.505 52.5813C162.448 52.7339 162.502 52.8982 162.662 52.8982H163.336C163.492 52.8982 163.637 52.8161 163.72 52.6811L166.491 48.4086C166.502 48.391 166.519 48.3822 166.539 48.3822L168.385 48.4321C168.479 48.4379 168.8 48.4409 168.897 48.4409C170.157 48.4409 170.954 48.0212 170.954 47.5018C170.954 46.9825 170.16 46.5599 168.897 46.5599Z" fill="white"/>
<path fill-rule="evenodd" clip-rule="evenodd" d="M111.87 46.999H155.035V47.999H111.87V46.999Z" fill="white"/>
<path opacity="0.1" d="M56.7113 31.3838C56.7113 28.0701 59.3976 25.3838 62.7113 25.3838H105.87C109.184 25.3838 111.87 28.0701 111.87 31.3838V49.041C111.87 52.3547 109.184 55.041 105.87 55.041H62.7113C59.3976 55.041 56.7113 52.3547 56.7113 49.041V31.3838Z" fill="black"/>
<path fill-rule="evenodd" clip-rule="evenodd" d="M93.4883 40.4883C93.4883 39.6599 94.1599 38.9883 94.9883 38.9883L109.803 38.9883C110.631 38.9883 111.303 39.6599 111.303 40.4883C111.303 41.3167 110.631 41.9883 109.803 41.9883L94.9883 41.9883C94.1599 41.9883 93.4883 41.3167 93.4883 40.4883Z" fill="white"/>
<path opacity="0.1" d="M76.8949 76.8955C76.8949 73.5818 79.5812 70.8955 82.8949 70.8955H176C179.314 70.8955 182 73.5818 182 76.8955V88C182 91.3137 179.314 94 176 94H82.8949C79.5812 94 76.8949 91.3137 76.8949 88V76.8955Z" fill="black"/>
<path fill-rule="evenodd" clip-rule="evenodd" d="M39.3187 46.6777C39.3187 66.2838 55.2126 82.1777 74.8187 82.1777C94.4248 82.1777 110.319 66.2838 110.319 46.6777C110.319 27.0716 94.4248 11.1777 74.8187 11.1777C55.2126 11.1777 39.3187 27.0716 39.3187 46.6777ZM74.8187 0.177734C49.1375 0.177734 28.3187 20.9965 28.3187 46.6777C28.3187 72.359 49.1375 93.1777 74.8187 93.1777C100.5 93.1777 121.319 72.359 121.319 46.6777C121.319 20.9965 100.5 0.177734 74.8187 0.177734Z" fill="black"/>
<path d="M37.3395 72.6714C39.6827 70.3282 43.4816 70.3282 45.8248 72.6714V72.6714C48.1679 75.0145 48.1679 78.8135 45.8248 81.1566L13.2979 113.684C10.9547 116.027 7.15575 116.027 4.8126 113.684V113.684C2.46946 111.34 2.46946 107.541 4.8126 105.198L37.3395 72.6714Z" fill="black"/>
<path d="M83.6099 31.675C85.3241 29.9609 88.1032 29.9609 89.8173 31.675V31.675C91.5314 33.3891 91.5314 36.1682 89.8173 37.8823L66.0224 61.6773C64.3083 63.3914 61.5291 63.3914 59.815 61.6773V61.6773C58.1009 59.9632 58.1009 57.184 59.815 55.4699L83.6099 31.675Z" fill="#281D3C"/>
<path d="M89.8173 55.4696C91.5315 57.1837 91.5315 59.9628 89.8173 61.6769V61.6769C88.1032 63.391 85.3241 63.391 83.61 61.6769L59.815 37.882C58.1009 36.1679 58.1009 33.3887 59.815 31.6746V31.6746C61.5291 29.9605 64.3083 29.9605 66.0224 31.6746L89.8173 55.4696Z" fill="#281D3C"/>
</svg>
