<?xml version="1.0" encoding="UTF-8" standalone="no"?>
<!DOCTYPE svg PUBLIC "-//W3C//DTD SVG 1.1//EN" "http://www.w3.org/Graphics/SVG/1.1/DTD/svg11.dtd">
<svg width="100%" height="100%" viewBox="0 0 182 118" version="1.1" xmlns="http://www.w3.org/2000/svg" xmlns:xlink="http://www.w3.org/1999/xlink" xml:space="preserve" xmlns:serif="http://www.serif.com/" style="fill-rule:evenodd;clip-rule:evenodd;stroke-linejoin:round;stroke-miterlimit:2;">
    <g transform="matrix(1.46131,0,0,1.46131,-94.7561,-79.6163)">
        <path d="M76.895,76.896C76.895,73.582 79.581,70.896 82.895,70.896L176,70.896C179.314,70.896 182,73.582 182,76.896L182,88C182,91.314 179.314,94 176,94L82.895,94C79.581,94 76.895,91.314 76.895,88L76.895,76.896Z" style="fill:white;fill-opacity:0.4;fill-rule:nonzero;"/>
    </g>
    <g transform="matrix(1.46131,0,0,1.46131,-91.1262,-28.9178)">
        <path d="M140.255,36.202C141.003,27.267 148.502,20.238 157.63,20.238C166.823,20.238 174.364,27.366 175.021,36.392C174.54,36.268 174.036,36.202 173.516,36.202L172.998,36.202C172.255,28.372 165.654,22.238 157.63,22.238C149.607,22.238 143.006,28.372 142.263,36.202L140.255,36.202Z" style="fill:white;fill-opacity:0.2;"/>
    </g>
    <g transform="matrix(1.46131,0,0,1.46131,-94.7561,-39.8721)">
        <path d="M76.895,76.896C76.895,73.582 79.581,70.896 82.895,70.896L176,70.896C179.314,70.896 182,73.582 182,76.896L182,88C182,91.314 179.314,94 176,94L82.895,94C79.581,94 76.895,91.314 76.895,88L76.895,76.896Z" style="fill:white;fill-opacity:0.4;fill-rule:nonzero;"/>
    </g>
    <g transform="matrix(1.46131,0,0,1.46131,-91.1262,-28.9178)">
        <path d="M154.121,86.504C149.946,94.75 141.391,100.407 131.524,100.407C121.658,100.407 113.103,94.75 108.928,86.504L154.121,86.504ZM151.299,59.306C152.315,60.576 153.211,61.946 153.971,63.399L109.078,63.399C109.838,61.946 110.734,60.576 111.75,59.306L151.299,59.306Z" style="fill:white;fill-opacity:0.12;"/>
    </g>
    <g transform="matrix(1.46131,0,0,1.46131,-91.1262,-28.9178)">
        <path d="M168.897,46.56C168.8,46.56 168.476,46.563 168.385,46.569L166.539,46.619C166.519,46.619 166.499,46.61 166.491,46.592L163.723,42.317C163.64,42.182 163.492,42.1 163.339,42.1L162.664,42.1C162.505,42.1 162.451,42.264 162.508,42.417L163.933,46.607C163.947,46.645 163.922,46.686 163.882,46.686L160.4,46.739C160.326,46.742 160.258,46.707 160.212,46.648L159.16,45.328C159.074,45.213 158.941,45.149 158.801,45.149L158.323,45.149C158.244,45.149 158.19,45.228 158.215,45.304L158.781,47.32C158.824,47.431 158.824,47.558 158.781,47.669L158.215,49.685C158.19,49.761 158.244,49.841 158.323,49.841L158.798,49.841C158.938,49.841 159.072,49.773 159.157,49.662L160.229,48.321C160.275,48.262 160.346,48.227 160.417,48.23L163.879,48.309C163.919,48.312 163.945,48.35 163.93,48.388L162.505,52.581C162.448,52.734 162.502,52.898 162.662,52.898L163.336,52.898C163.492,52.898 163.637,52.816 163.72,52.681L166.491,48.409C166.502,48.391 166.519,48.382 166.539,48.382L168.385,48.432C168.479,48.438 168.8,48.441 168.897,48.441C170.157,48.441 170.954,48.021 170.954,47.502C170.954,46.983 170.16,46.56 168.897,46.56Z" style="fill:white;fill-rule:nonzero;"/>
        <g transform="matrix(1.60471,0,0,1,-93.7518,0)">
            <rect x="111.87" y="46.999" width="43.165" height="1" style="fill:white;"/>
        </g>
    </g>
    <g transform="matrix(1.46131,0,0,1.46131,-91.1262,11.4795)">
        <path d="M168.897,46.56C168.8,46.56 168.476,46.563 168.385,46.569L166.539,46.619C166.519,46.619 166.499,46.61 166.491,46.592L163.723,42.317C163.64,42.182 163.492,42.1 163.339,42.1L162.664,42.1C162.505,42.1 162.451,42.264 162.508,42.417L163.933,46.607C163.947,46.645 163.922,46.686 163.882,46.686L160.4,46.739C160.326,46.742 160.258,46.707 160.212,46.648L159.16,45.328C159.074,45.213 158.941,45.149 158.801,45.149L158.323,45.149C158.244,45.149 158.19,45.228 158.215,45.304L158.781,47.32C158.824,47.431 158.824,47.558 158.781,47.669L158.215,49.685C158.19,49.761 158.244,49.841 158.323,49.841L158.798,49.841C158.938,49.841 159.072,49.773 159.157,49.662L160.229,48.321C160.275,48.262 160.346,48.227 160.417,48.23L163.879,48.309C163.919,48.312 163.945,48.35 163.93,48.388L162.505,52.581C162.448,52.734 162.502,52.898 162.662,52.898L163.336,52.898C163.492,52.898 163.637,52.816 163.72,52.681L166.491,48.409C166.502,48.391 166.519,48.382 166.539,48.382L168.385,48.432C168.479,48.438 168.8,48.441 168.897,48.441C170.157,48.441 170.954,48.021 170.954,47.502C170.954,46.983 170.16,46.56 168.897,46.56Z" style="fill:white;fill-rule:nonzero;"/>
        <g transform="matrix(1.60471,0,0,1,-93.7518,0)">
            <rect x="111.87" y="46.999" width="43.165" height="1" style="fill:white;"/>
        </g>
    </g>
    <g transform="matrix(1.22832,0,0,1.22832,-44.3945,-30.058)">
        <path d="M107.016,31.579C91.113,31.579 78.201,44.49 78.201,60.393C78.201,76.296 91.113,89.208 107.016,89.208C122.919,89.208 135.83,76.296 135.83,60.393C135.83,44.49 122.919,31.579 107.016,31.579ZM107.016,35.564C120.719,35.564 131.845,46.69 131.845,60.393C131.845,74.097 120.719,85.222 107.016,85.222C93.312,85.222 82.187,74.097 82.187,60.393C82.187,46.69 93.312,35.564 107.016,35.564Z" style="fill:white;"/>
    </g>
    <g transform="matrix(1.64872,0,0,1.64872,-89.3839,-55.4473)">
        <path d="M107.016,34.822C92.902,34.822 81.444,46.28 81.444,60.393C81.444,74.506 92.902,85.965 107.016,85.965C121.129,85.965 132.587,74.506 132.587,60.393C132.587,46.28 121.129,34.822 107.016,34.822ZM107.016,35.564C120.719,35.564 131.845,46.69 131.845,60.393C131.845,74.097 120.719,85.222 107.016,85.222C93.312,85.222 82.187,74.097 82.187,60.393C82.187,46.69 93.312,35.564 107.016,35.564Z" style="fill-opacity:0.1;"/>
    </g>
    <g transform="matrix(1.15035,-1.15035,1.15035,1.15035,-109.883,122.812)">
        <path d="M98.199,50.035C98.199,49.225 97.542,48.567 96.731,48.567L69.045,48.567C68.235,48.567 67.577,49.225 67.577,50.035L67.577,50.769C67.577,51.579 68.235,52.236 69.045,52.236L96.731,52.236C97.542,52.236 98.199,51.579 98.199,50.769L98.199,50.035Z" style="fill:white;"/>
    </g>
    <g transform="matrix(1.46131,0,0,1.46131,-91.1262,-28.9178)">
        <g transform="matrix(0.393541,-0.393541,0.787206,0.787206,49.4712,42.6077)">
            <path d="M98.199,50.035C98.199,49.225 96.884,48.567 95.263,48.567L70.513,48.567C68.892,48.567 67.577,49.225 67.577,50.035L67.577,50.769C67.577,51.579 68.892,52.236 70.513,52.236L95.263,52.236C96.884,52.236 98.199,51.579 98.199,50.769L98.199,50.035Z" style="fill:white;"/>
        </g>
        <g transform="matrix(0.393541,0.393541,-0.787206,0.787206,128.824,-22.632)">
            <path d="M98.199,50.035C98.199,49.225 96.884,48.567 95.263,48.567L70.513,48.567C68.892,48.567 67.577,49.225 67.577,50.035L67.577,50.769C67.577,51.579 68.892,52.236 70.513,52.236L95.263,52.236C96.884,52.236 98.199,51.579 98.199,50.769L98.199,50.035Z" style="fill:white;"/>
        </g>
    </g>
</svg>
