<svg width="1039" height="624" viewBox="0 0 1039 624" fill="none" xmlns="http://www.w3.org/2000/svg">
<path opacity="0.3" d="M638.378 545.334C637.127 545.334 632.929 545.371 631.751 545.443L607.854 546.06C607.596 546.06 607.338 545.951 607.228 545.733L571.401 492.856C570.334 491.187 568.419 490.171 566.431 490.171H557.704C555.642 490.171 554.942 492.203 555.679 494.09L574.126 545.915C574.31 546.387 573.979 546.895 573.463 546.895L528.395 547.548C527.437 547.584 526.554 547.149 525.964 546.423L512.341 530.092C511.236 528.676 509.506 527.878 507.701 527.878H501.515C500.484 527.878 499.785 528.858 500.116 529.801L507.444 554.734C507.996 556.113 507.996 557.673 507.444 559.053L500.116 583.985C499.785 584.928 500.484 585.908 501.515 585.908H507.665C509.469 585.908 511.199 585.074 512.304 583.695L526.185 567.109C526.775 566.383 527.695 565.948 528.616 565.984L573.427 566.964C573.942 567 574.273 567.472 574.089 567.944L555.642 619.805C554.906 621.692 555.605 623.724 557.667 623.724H566.394C568.419 623.724 570.297 622.708 571.365 621.039L607.228 568.198C607.375 567.98 607.596 567.871 607.854 567.871L631.751 568.488C632.966 568.561 637.127 568.597 638.378 568.597C654.69 568.597 665 563.408 665 556.984C665 550.56 654.727 545.334 638.378 545.334Z" fill="#614C8C"/>
<path opacity="0.3" d="M1012.28 76.5579C1011.03 76.5579 1006.84 76.5942 1005.66 76.6668L981.76 77.2837C981.502 77.2837 981.245 77.1749 981.134 76.9571L945.308 24.0801C944.24 22.4107 942.325 21.3945 940.337 21.3945H931.61C929.548 21.3945 928.849 23.4269 929.585 25.314L948.032 77.1386C948.216 77.6104 947.885 78.1184 947.37 78.1184L902.301 78.7717C901.344 78.808 900.46 78.3725 899.871 77.6466L886.247 61.3154C885.142 59.9 883.412 59.1016 881.608 59.1016H875.422C874.391 59.1016 873.691 60.0815 874.023 61.025L881.35 85.9574C881.902 87.3365 881.902 88.8971 881.35 90.2761L874.023 115.209C873.691 116.152 874.391 117.132 875.422 117.132H881.571C883.375 117.132 885.106 116.297 886.21 114.918L900.092 98.3329C900.681 97.6071 901.601 97.1716 902.522 97.2079L947.333 98.1877C947.848 98.224 948.18 98.6958 947.996 99.1676L929.548 151.028C928.812 152.916 929.511 154.948 931.573 154.948H940.3C942.325 154.948 944.203 153.932 945.271 152.262L981.134 99.4216C981.282 99.2039 981.502 99.095 981.76 99.095L1005.66 99.712C1006.87 99.7846 1011.03 99.8209 1012.28 99.8209C1028.6 99.8209 1038.91 94.6311 1038.91 88.2075C1038.91 81.7839 1028.63 76.5579 1012.28 76.5579Z" fill="#614C8C"/>
<g opacity="0.3">
<path fill-rule="evenodd" clip-rule="evenodd" d="M434.44 54.3597C448.308 54.3597 459.55 43.1176 459.55 29.2498C459.55 15.382 448.308 4.13992 434.44 4.13992C420.573 4.13992 409.331 15.382 409.331 29.2498C409.331 43.1176 420.573 54.3597 434.44 54.3597ZM436.001 35.4463L436.241 36.6033C436.433 37.5317 436.807 38.348 437.363 39.0522C437.926 39.7549 438.642 40.2656 439.513 40.5842C440.383 40.9029 441.379 40.946 442.501 40.7136C443.622 40.4811 444.522 40.045 445.201 39.4052C445.881 38.7653 446.339 38.0111 446.576 37.1426C446.82 36.2726 446.846 35.3734 446.654 34.445L446.414 33.288C446.218 32.3453 445.839 31.5226 445.277 30.8199C444.714 30.1172 443.994 29.6108 443.118 29.3008C442.249 28.9893 441.247 28.9512 440.111 29.1866C439.004 29.4161 438.115 29.85 437.443 30.4884C436.77 31.1267 436.312 31.8809 436.068 32.7509C435.831 33.6194 435.809 34.5179 436.001 35.4463ZM439.969 35.8306L439.729 34.6736C439.64 34.2451 439.654 33.8101 439.771 33.3687C439.896 32.9259 440.24 32.6459 440.804 32.529C441.418 32.4017 441.856 32.5195 442.118 32.8824C442.379 33.2454 442.554 33.6411 442.643 34.0696L442.883 35.2266C442.972 35.6551 442.96 36.0822 442.847 36.5078C442.741 36.9319 442.392 37.2055 441.799 37.3283C441.235 37.4453 440.808 37.3288 440.52 36.9789C440.237 36.6204 440.053 36.2376 439.969 35.8306ZM421.915 25.2713L422.154 26.4282C422.347 27.3567 422.72 28.1694 423.274 28.8665C423.836 29.562 424.551 30.0656 425.42 30.377C426.289 30.6885 427.284 30.7281 428.405 30.4957C429.526 30.2633 430.428 29.8343 431.11 29.2087C431.793 28.5831 432.253 27.8397 432.492 26.9783C432.737 26.1155 432.763 25.2127 432.567 24.27L432.327 23.113C432.132 22.1702 431.753 21.3475 431.19 20.6448C430.627 19.9421 429.908 19.4358 429.032 19.1258C428.163 18.8143 427.16 18.7762 426.025 19.0116C424.932 19.2381 424.049 19.6669 423.375 20.2982C422.702 20.9294 422.239 21.6807 421.988 22.5522C421.744 23.4222 421.719 24.3285 421.915 25.2713ZM425.925 25.6466L425.685 24.4897C425.601 24.0826 425.61 23.6562 425.711 23.2107C425.818 22.7565 426.153 22.4709 426.718 22.354C427.332 22.2267 427.77 22.3445 428.031 22.7074C428.293 23.0703 428.468 23.4661 428.556 23.8946L428.796 25.0516C428.885 25.4801 428.873 25.9071 428.76 26.3328C428.654 26.7569 428.305 27.0304 427.712 27.1533C427.17 27.2658 426.758 27.1499 426.478 26.8057C426.198 26.4615 426.014 26.0751 425.925 25.6466ZM437.967 17.6537L427.431 42.7198L430.473 42.0892L441.009 17.0231L437.967 17.6537Z" fill="#7C69A0"/>
</g>
<g opacity="0.3">
<path fill-rule="evenodd" clip-rule="evenodd" d="M50.4076 596.491C77.5308 596.491 99.5185 574.503 99.5185 547.38C99.5185 520.257 77.5308 498.269 50.4076 498.269C23.2845 498.269 1.2968 520.257 1.29679 547.38C1.2968 574.503 23.2845 596.491 50.4076 596.491ZM53.4598 559.499L53.9289 561.762C54.3053 563.578 55.0368 565.175 56.1235 566.552C57.2242 567.926 58.6259 568.925 60.3284 569.548C62.031 570.171 63.9788 570.256 66.1718 569.801C68.3648 569.347 70.1256 568.494 71.4542 567.242C72.7827 565.991 73.6789 564.516 74.1426 562.817C74.6204 561.115 74.671 559.357 74.2946 557.541L73.8256 555.278C73.4434 553.434 72.702 551.825 71.6013 550.451C70.5006 549.076 69.0934 548.086 67.3798 547.48C65.6801 546.87 63.7198 546.796 61.4989 547.256C59.3338 547.705 57.594 548.554 56.2794 549.802C54.9648 551.051 54.0686 552.526 53.5909 554.227C53.1271 555.926 53.0835 557.683 53.4598 559.499ZM61.2203 560.251L60.7513 557.988C60.5776 557.15 60.6052 556.299 60.8342 555.436C61.0771 554.57 61.7503 554.022 62.8538 553.793C64.0551 553.544 64.9114 553.775 65.4228 554.485C65.9341 555.195 66.2766 555.969 66.4504 556.807L66.9194 559.069C67.0931 559.908 67.0696 560.743 66.8488 561.575C66.6419 562.405 65.9588 562.94 64.7995 563.18C63.696 563.409 62.8621 563.181 62.2977 562.497C61.7445 561.796 61.3853 561.047 61.2203 560.251ZM25.909 539.598L26.378 541.861C26.7544 543.677 27.4845 545.267 28.5683 546.63C29.6662 547.991 31.0649 548.975 32.7645 549.585C34.4642 550.194 36.4106 550.271 38.6036 549.817C40.7966 549.362 42.5603 548.523 43.8946 547.299C45.229 546.076 46.1295 544.622 46.5961 542.937C47.0767 541.25 47.126 539.484 46.7438 537.64L46.2748 535.377C45.8926 533.533 45.1512 531.924 44.0505 530.55C42.9498 529.176 41.5426 528.185 39.829 527.579C38.1293 526.97 36.169 526.895 33.948 527.356C31.8109 527.799 30.0836 528.637 28.7661 529.872C27.4486 531.106 26.544 532.576 26.0523 534.28C25.5746 535.982 25.5268 537.755 25.909 539.598ZM33.7533 540.333L33.2843 538.07C33.1192 537.274 33.1358 536.44 33.3339 535.568C33.5431 534.68 34.1995 534.121 35.303 533.893C36.5043 533.644 37.3606 533.874 37.8719 534.584C38.3833 535.294 38.7258 536.068 38.8995 536.906L39.3685 539.169C39.5422 540.007 39.5187 540.842 39.2979 541.675C39.0911 542.504 38.408 543.039 37.2486 543.279C36.187 543.499 35.3825 543.273 34.835 542.6C34.2876 541.926 33.927 541.171 33.7533 540.333ZM57.3043 524.7L36.6974 573.725L42.6479 572.492L63.2548 523.466L57.3043 524.7Z" fill="#7C69A0"/>
</g>
</svg>
