<svg width="26" height="22" viewBox="0 0 26 22" fill="none" xmlns="http://www.w3.org/2000/svg">
<path d="M21.91 9.16421C21.7177 9.16421 21.0728 9.17012 20.8917 9.18194L17.2203 9.28238C17.1807 9.28238 17.1411 9.26465 17.1241 9.2292L11.6197 0.620808C11.4557 0.349026 11.1615 0.183594 10.856 0.183594H9.51528C9.19848 0.183594 9.09099 0.514459 9.20414 0.82169L12.0384 9.25874C12.0666 9.33555 12.0157 9.41827 11.9365 9.41827L5.01221 9.52462C4.86513 9.53053 4.72936 9.45963 4.63884 9.34146L2.54571 6.68272C2.376 6.4523 2.11011 6.32232 1.83291 6.32232H0.882517C0.724117 6.32232 0.616632 6.48184 0.667546 6.63546L1.79331 10.6945C1.87817 10.919 1.87817 11.173 1.79331 11.3975L0.667546 15.4566C0.616632 15.6102 0.724117 15.7697 0.882517 15.7697H1.82726C2.10445 15.7697 2.37034 15.6338 2.54005 15.4093L4.67278 12.7092C4.7633 12.591 4.90473 12.5201 5.04615 12.526L11.9309 12.6856C12.0101 12.6915 12.061 12.7683 12.0327 12.8451L9.19848 21.288C9.08534 21.5953 9.19282 21.9261 9.50962 21.9261H10.8504C11.1615 21.9261 11.45 21.7607 11.6141 21.4889L17.1241 12.8864C17.1467 12.851 17.1807 12.8333 17.2203 12.8333L20.8917 12.9337C21.0784 12.9455 21.7177 12.9514 21.91 12.9514C24.4161 12.9514 26.0001 12.1065 26.0001 11.0608C26.0001 10.015 24.4218 9.16421 21.91 9.16421Z" fill="#614C8C"/>
</svg>
