<svg width="44" height="30" viewBox="0 0 44 30" fill="none" xmlns="http://www.w3.org/2000/svg">
<path d="M22.1547 13.1095C21.96 13.1095 21.307 13.1154 21.1237 13.1272L17.4065 13.2277C17.3664 13.2277 17.3263 13.21 17.3091 13.1745L11.736 4.56612C11.5699 4.29434 11.2721 4.12891 10.9628 4.12891H9.60533C9.28458 4.12891 9.17575 4.45977 9.2903 4.767L12.1599 13.2041C12.1885 13.2809 12.137 13.3636 12.0568 13.3636L5.04607 13.4699C4.89715 13.4758 4.75969 13.4049 4.66805 13.2868L2.5488 10.628C2.37696 10.3976 2.10776 10.2676 1.8271 10.2676H0.86485C0.704475 10.2676 0.595648 10.4272 0.647198 10.5808L1.78701 14.6398C1.87293 14.8643 1.87293 15.1183 1.78701 15.3429L0.647198 19.4019C0.595648 19.5555 0.704475 19.715 0.86485 19.715H1.82138C2.10203 19.715 2.37124 19.5791 2.54307 19.3546L4.70241 16.6545C4.79406 16.5363 4.93725 16.4654 5.08044 16.4713L12.0511 16.6309C12.1312 16.6368 12.1828 16.7136 12.1542 16.7904L9.28458 25.2334C9.17002 25.5406 9.27885 25.8715 9.5996 25.8715H10.9571C11.2721 25.8715 11.5642 25.706 11.7303 25.4342L17.3091 16.8318C17.332 16.7963 17.3664 16.7786 17.4065 16.7786L21.1237 16.879C21.3128 16.8908 21.96 16.8967 22.1547 16.8967C24.6921 16.8967 26.2959 16.0519 26.2959 15.0061C26.2959 13.9603 24.6978 13.1095 22.1547 13.1095Z" fill="white"/>
<path fill-rule="evenodd" clip-rule="evenodd" d="M30.2959 1.95277V0.0888672H32.1894V1.95277H30.2959ZM30.2959 9.40836V5.68056H32.1894V9.40836H30.2959ZM30.2959 16.864V13.1362H32.1894V16.864H30.2959ZM30.2959 24.3196V20.5918H32.1894V24.3196H30.2959ZM30.2959 29.9112V28.0474H32.1894V29.9112H30.2959Z" fill="white"/>
<path d="M36.1895 1.48047H44.0001V4.31466H36.1895V1.48047Z" fill="white"/>
<path d="M36.1895 6.21387H44.0001V7.87067H36.1895V6.21387Z" fill="white"/>
<path d="M36.1895 14.5039H44.0001V16.1607H36.1895V14.5039Z" fill="white"/>
<path d="M36.1895 26.8633H44.0001V28.5201H36.1895V26.8633Z" fill="white"/>
<path d="M36.1895 9.88281H44.0001V12.6047H36.1895V9.88281Z" fill="white"/>
<path d="M36.1895 18.0596H44.0001V20.7815H36.1895V18.0596Z" fill="white"/>
<path d="M36.1895 22.7168H44.0001V25.4387H36.1895V22.7168Z" fill="white"/>
</svg>
