<svg width="104" height="18" viewBox="0 0 104 18" fill="none" xmlns="http://www.w3.org/2000/svg">
<path d="M54.0948 9.72292H45.7702V7.06634H54.0948V9.72292ZM55.2812 15.6647H45.7702C45.4051 15.6647 45.0063 15.6005 44.5737 15.4721C44.1411 15.3437 43.7389 15.1341 43.3671 14.8434C43.0021 14.546 42.6945 14.1641 42.4444 13.6977C42.201 13.2245 42.0793 12.6465 42.0793 11.9638V2.4528C42.0793 2.27029 42.1131 2.09792 42.1807 1.93568C42.2483 1.77345 42.3396 1.63149 42.4545 1.50982C42.5762 1.38814 42.7181 1.29351 42.8804 1.22591C43.0426 1.15831 43.2184 1.12451 43.4076 1.12451H55.2812V3.76082H44.7157V11.9638C44.7157 12.3085 44.8069 12.5722 44.9894 12.7547C45.1719 12.9372 45.4389 13.0284 45.7905 13.0284H55.2812V15.6647Z" fill="url(#paint0_linear_373_137)"/>
<path fill-rule="evenodd" clip-rule="evenodd" d="M62.3257 1.65539C61.9217 1.65539 61.5708 1.70669 61.2687 1.80357C60.9564 1.90376 60.6852 2.03739 60.4521 2.20226L60.4507 2.20324C60.2192 2.36529 60.0216 2.55188 59.8561 2.76299C59.6858 2.98029 59.5493 3.20737 59.4452 3.44436L59.444 3.44726C59.338 3.68282 59.2587 3.92334 59.2058 4.16914C59.1582 4.41431 59.1353 4.63957 59.1353 4.84577V11.6668C59.1353 12.0702 59.1865 12.4249 59.2838 12.7344C59.384 13.0465 59.5145 13.3177 59.673 13.5507C59.8411 13.7818 60.0303 13.9791 60.2406 14.1443C60.4589 14.3092 60.684 14.4434 60.916 14.5479C61.1593 14.6546 61.4004 14.7339 61.6395 14.7867C61.8914 14.8344 62.1198 14.8572 62.3257 14.8572H71.0679V13.0303H62.3257C61.9397 13.0303 61.592 12.9246 61.3297 12.6717L61.3252 12.6673L61.3208 12.6628C61.0679 12.4005 60.9623 12.0528 60.9623 11.6668V4.86515C60.9623 4.46728 61.0641 4.10641 61.3252 3.8453C61.584 3.58652 61.9363 3.48233 62.3257 3.48233H71.0679V1.65539H62.3257ZM61.0573 1.14445C61.44 1.02171 61.8641 0.963196 62.3257 0.963196H71.7601V4.17453H62.3257C62.0563 4.17453 61.9047 4.24475 61.8147 4.33476C61.727 4.42247 61.6545 4.57834 61.6545 4.86515V11.6668C61.6545 11.9229 61.7211 12.0781 61.8148 12.1778C61.9144 12.2714 62.0697 12.3381 62.3257 12.3381H71.7601V15.5494H62.3257C62.0678 15.5494 61.794 15.5208 61.5052 15.4658L61.5005 15.4649L61.4957 15.4638C61.2072 15.4005 60.9207 15.3059 60.6363 15.1811L60.6334 15.1798C60.35 15.0523 60.0791 14.8901 59.8206 14.6945L59.8159 14.6909C59.5503 14.4828 59.315 14.2362 59.1097 13.9531L59.1069 13.9492L59.1041 13.9451C58.9023 13.6496 58.7432 13.3152 58.6244 12.9449L58.6238 12.9431C58.5017 12.5552 58.4431 12.1286 58.4431 11.6668V4.84577C58.4431 4.58779 58.4718 4.31672 58.527 4.03344L58.5283 4.02719C58.5915 3.73199 58.6863 3.44438 58.8121 3.16464C58.9405 2.8725 59.1073 2.59624 59.3113 2.33598C59.5203 2.06931 59.7681 1.83621 60.0531 1.63664C60.3495 1.42711 60.6853 1.26378 61.0573 1.14445Z" fill="url(#paint1_linear_373_137)"/>
<path fill-rule="evenodd" clip-rule="evenodd" d="M0 0.911926H35.803V17.696H0V0.911926ZM0.940414 1.85234V16.7556H34.8626V1.85234H0.940414Z" fill="url(#paint2_linear_373_137)"/>
<path d="M18.4753 8.2059C18.3826 8.2059 18.0719 8.20883 17.9846 8.2147L16.2155 8.26459C16.1964 8.26459 16.1773 8.25578 16.1691 8.23818L13.5168 3.96275C13.4377 3.82777 13.296 3.74561 13.1488 3.74561H12.5027C12.3501 3.74561 12.2983 3.90993 12.3528 4.06252L13.7185 8.25285C13.7321 8.291 13.7076 8.33208 13.6694 8.33208L10.3328 8.3849C10.262 8.38783 10.1965 8.35262 10.1529 8.29393L9.14432 6.97345C9.06254 6.85901 8.93442 6.79445 8.80085 6.79445H8.34289C8.26656 6.79445 8.21477 6.87368 8.2393 6.94997L8.78177 8.96591C8.82266 9.07742 8.82266 9.2036 8.78177 9.3151L8.2393 11.331C8.21477 11.4073 8.26656 11.4866 8.34289 11.4866H8.79813C8.9317 11.4866 9.05982 11.4191 9.1416 11.3076L10.1693 9.96654C10.2129 9.90785 10.281 9.87264 10.3492 9.87557L13.6667 9.9548C13.7049 9.95774 13.7294 9.99588 13.7158 10.034L12.3501 14.2273C12.2955 14.3799 12.3473 14.5442 12.5 14.5442H13.146C13.296 14.5442 13.435 14.462 13.514 14.3271L16.1691 10.0546C16.18 10.037 16.1964 10.0282 16.2155 10.0282L17.9846 10.078C18.0746 10.0839 18.3826 10.0869 18.4753 10.0869C19.6829 10.0869 20.4462 9.66723 20.4462 9.14784C20.4462 8.62845 19.6856 8.2059 18.4753 8.2059Z" fill="url(#paint3_linear_373_137)"/>
<path fill-rule="evenodd" clip-rule="evenodd" d="M24.7532 1.98572V1.06H25.6936V1.98572H24.7532ZM24.7532 5.6886V3.83716H25.6936V5.6886H24.7532ZM24.7532 9.39148V7.54004H25.6936V9.39148H24.7532ZM24.7532 13.0944V11.2429H25.6936V13.0944H24.7532ZM24.7532 15.8715V14.9458H25.6936V15.8715H24.7532Z" fill="#F79A7E"/>
<path d="M29.5479 1.97198H33.4271V3.37961H29.5479V1.97198Z" fill="#F7A380"/>
<path d="M29.5479 4.323H33.4271V5.14586H29.5479V4.323Z" fill="#F7A380"/>
<path d="M29.5479 8.44012H33.4271V9.26299H29.5479V8.44012Z" fill="#F7A380"/>
<path d="M29.5479 14.5784H33.4271V15.4012H29.5479V14.5784Z" fill="#F7A380"/>
<path d="M29.5479 6.14502H33.4271V7.49686H29.5479V6.14502Z" fill="#F7A380"/>
<path d="M29.5479 10.2062H33.4271V11.5581H29.5479V10.2062Z" fill="#F7A380"/>
<path d="M29.5479 12.5191H33.4271V13.8709H29.5479V12.5191Z" fill="#F7A380"/>
<rect x="75" y="0.303955" width="29" height="17" rx="8.5" fill="url(#paint4_linear_373_137)"/>
<path d="M84.6037 4.07668V12.804H82.7585V4.07668H84.6037ZM90.0261 12.804H88.0488L91.0616 4.07668H93.4394L96.4479 12.804H94.4707L92.2846 6.071H92.2164L90.0261 12.804ZM89.9025 9.37356H94.5729V10.8139H89.9025V9.37356Z" fill="#271C3A"/>
<defs>
<linearGradient id="paint0_linear_373_137" x1="42.0793" y1="8.39463" x2="55.2812" y2="8.39463" gradientUnits="userSpaceOnUse">
<stop stop-color="#F97372"/>
<stop offset="1" stop-color="#F6A681"/>
</linearGradient>
<linearGradient id="paint1_linear_373_137" x1="58.4431" y1="8.2563" x2="71.7601" y2="8.2563" gradientUnits="userSpaceOnUse">
<stop stop-color="#F97372"/>
<stop offset="1" stop-color="#F6A681"/>
</linearGradient>
<linearGradient id="paint2_linear_373_137" x1="2.66753e-07" y1="9.30398" x2="35.803" y2="9.30398" gradientUnits="userSpaceOnUse">
<stop stop-color="#F97372"/>
<stop offset="1" stop-color="#F6A681"/>
</linearGradient>
<linearGradient id="paint3_linear_373_137" x1="8.23315" y1="9.14491" x2="20.4462" y2="9.14491" gradientUnits="userSpaceOnUse">
<stop stop-color="#F97372"/>
<stop offset="1" stop-color="#F6A681"/>
</linearGradient>
<linearGradient id="paint4_linear_373_137" x1="75" y1="8.80395" x2="104" y2="8.80396" gradientUnits="userSpaceOnUse">
<stop stop-color="#F97372"/>
<stop offset="1" stop-color="#F6A681"/>
</linearGradient>
</defs>
</svg>
