<svg width="260" height="18" viewBox="0 0 260 18" fill="none" xmlns="http://www.w3.org/2000/svg">
<path fill-rule="evenodd" clip-rule="evenodd" d="M256.16 15.2773L256.163 15.2761C256.938 14.9591 257.615 14.5149 258.188 13.9419C258.761 13.3689 259.206 12.6911 259.522 11.9164C259.844 11.1311 260 10.2808 260 9.37359V6.78055C260 5.8794 259.844 5.0327 259.523 4.24834C259.206 3.46763 258.762 2.78843 258.187 2.22014C257.614 1.64821 256.938 1.20464 256.164 0.888032C255.385 0.566666 254.544 0.410156 253.648 0.410156H250.317C249.421 0.410156 248.577 0.566806 247.793 0.887557C247.019 1.2042 246.342 1.64794 245.769 2.22018C245.195 2.78753 244.748 3.4653 244.425 4.24427L244.424 4.24718C244.103 5.03187 243.947 5.87896 243.947 6.78055V9.37359C243.947 10.2808 244.103 11.1311 244.424 11.9164L244.426 11.9214C244.749 12.694 245.196 13.37 245.768 13.9419C246.341 14.5149 247.019 14.9591 247.793 15.2761L247.798 15.2781C248.581 15.5912 249.423 15.744 250.317 15.744H253.648C254.542 15.744 255.382 15.5912 256.16 15.2773ZM257.699 2.71118C258.204 3.2096 258.598 3.80896 258.882 4.50927C259.166 5.20327 259.308 5.96037 259.308 6.78055V9.37359C259.308 10.2001 259.166 10.9603 258.882 11.6543C258.598 12.3483 258.204 12.9477 257.699 13.4524C257.194 13.9572 256.595 14.3515 255.901 14.6354C255.213 14.913 254.462 15.0518 253.648 15.0518H250.317C249.503 15.0518 248.749 14.913 248.055 14.6354C247.361 14.3515 246.762 13.9572 246.257 13.4524C245.753 12.9477 245.355 12.3483 245.065 11.6543C244.781 10.9603 244.639 10.2001 244.639 9.37359V6.78055C244.639 5.96037 244.781 5.20327 245.065 4.50927C245.355 3.80896 245.753 3.2096 246.257 2.71118C246.762 2.20645 247.361 1.81213 248.055 1.52822C248.749 1.24431 249.503 1.10236 250.317 1.10236H253.648C254.462 1.10236 255.213 1.24431 255.901 1.52822C256.595 1.81213 257.194 2.20645 257.699 2.71118ZM255.964 5.71152L255.966 5.71777L255.969 5.72396C256.088 6.02134 256.155 6.37014 256.155 6.78055V9.37359C256.155 9.78378 256.089 10.1373 255.967 10.4432L255.965 10.4486C255.847 10.7527 255.682 11.0067 255.471 11.2189C255.259 11.4257 254.999 11.5938 254.683 11.7196C254.383 11.8355 254.034 11.899 253.629 11.899H250.317C249.914 11.899 249.562 11.836 249.254 11.7196C248.946 11.5944 248.689 11.4267 248.476 11.2189C248.264 11.0061 248.095 10.7511 247.971 10.4459C247.855 10.1389 247.792 9.78425 247.792 9.37359V6.78055C247.792 6.36812 247.856 6.017 247.971 5.71767C248.096 5.40459 248.264 5.15151 248.473 4.94742L248.476 4.9447L248.479 4.94195C248.691 4.72921 248.946 4.56325 249.252 4.44504L249.257 4.44289C249.564 4.32109 249.915 4.25511 250.317 4.25511H253.648C254.044 4.25511 254.387 4.32072 254.686 4.44147L254.692 4.44397L254.698 4.44635C255.009 4.56468 255.26 4.72918 255.463 4.93642L255.468 4.94198L255.474 4.94742C255.681 5.15005 255.845 5.40092 255.964 5.71152ZM254.935 12.3641C255.333 12.2064 255.674 11.9887 255.958 11.7111C256.241 11.4272 256.459 11.0897 256.611 10.6985C256.768 10.301 256.847 9.8594 256.847 9.37359V6.78055C256.847 6.29475 256.768 5.85627 256.611 5.4651C256.459 5.06763 256.241 4.73009 255.958 4.45249C255.68 4.16858 255.342 3.95092 254.945 3.7995C254.554 3.64177 254.122 3.56291 253.648 3.56291H250.317C249.838 3.56291 249.399 3.64177 249.002 3.7995C248.611 3.95092 248.273 4.16858 247.989 4.45249C247.705 4.73009 247.484 5.06763 247.327 5.4651C247.175 5.85627 247.1 6.29475 247.1 6.78055V9.37359C247.1 9.8594 247.175 10.301 247.327 10.6985C247.484 11.0897 247.705 11.4272 247.989 11.7111C248.273 11.9887 248.611 12.2064 249.002 12.3641C249.399 12.5155 249.838 12.5912 250.317 12.5912H253.629C254.109 12.5912 254.544 12.5155 254.935 12.3641ZM222.267 14.8625L217.138 10.4241H215.368V7.96351H220.933C221.242 7.93827 221.523 7.87518 221.775 7.77423C222.034 7.66698 222.255 7.52502 222.438 7.34837C222.627 7.17171 222.772 6.96036 222.873 6.7143C222.974 6.46194 223.025 6.17487 223.025 5.85311V4.30107C223.025 4.16227 223.006 4.05817 222.968 3.98877C222.936 3.91306 222.892 3.85943 222.835 3.82789C222.785 3.79003 222.728 3.76795 222.665 3.76164C222.608 3.75533 222.554 3.75218 222.504 3.75218H214.384V14.8625H211.924V2.53136C211.924 2.36102 211.955 2.20014 212.018 2.04872C212.081 1.8973 212.167 1.76481 212.274 1.65124C212.387 1.53768 212.52 1.44935 212.671 1.38626C212.823 1.32317 212.987 1.29163 213.163 1.29163H222.504C223.053 1.29163 223.517 1.39257 223.895 1.59446C224.274 1.79004 224.58 2.03925 224.813 2.34209C225.053 2.63862 225.223 2.96038 225.324 3.30738C225.431 3.65439 225.485 3.97931 225.485 4.28214V5.85311C225.485 6.41462 225.416 6.91619 225.277 7.35783C225.138 7.79947 224.949 8.19063 224.709 8.53133C224.476 8.86571 224.204 9.15277 223.895 9.39252C223.586 9.63227 223.261 9.831 222.92 9.98873C222.586 10.1401 222.245 10.2506 221.898 10.32L221.877 10.3243C221.544 10.3908 221.229 10.4241 220.933 10.4241L226.072 14.8625H222.267ZM222.518 10.8779L227.932 15.5547H222.01L216.88 11.1163H215.076V15.5547H211.231V2.53136C211.231 2.27322 211.28 2.02151 211.379 1.78249C211.473 1.55767 211.603 1.35344 211.771 1.17596L211.777 1.16878L211.784 1.16179C211.963 0.982906 212.172 0.844413 212.405 0.747309C212.647 0.646437 212.902 0.599426 213.163 0.599426H222.504C223.134 0.599426 223.715 0.714842 224.217 0.981532C224.671 1.21669 225.056 1.52539 225.356 1.91304C225.647 2.27381 225.86 2.673 225.987 3.10832C226.11 3.50693 226.177 3.89952 226.177 4.28214V5.85311C226.177 6.47057 226.101 7.04406 225.937 7.56537C225.78 8.06715 225.561 8.52372 225.276 8.92861L225.277 8.92756L222.518 10.8779ZM222.518 10.8779C222.751 10.8079 222.98 10.7216 223.206 10.6193L223.211 10.6169C223.601 10.4363 223.971 10.2099 224.319 9.93951C224.686 9.65549 225.004 9.3173 225.276 8.92861L222.518 10.8779ZM215.076 4.44438V7.27131H220.903C221.14 7.2498 221.342 7.20166 221.514 7.13313C221.699 7.05602 221.843 6.9602 221.957 6.8504L221.961 6.84633L221.965 6.84233C222.079 6.73626 222.167 6.60952 222.232 6.45446C222.294 6.29785 222.332 6.10122 222.332 5.85311V4.44438H215.076ZM72.1029 15.349H74.7595V1.93425C74.7595 1.63006 74.6682 1.35967 74.4857 1.12308C74.3032 0.886486 74.07 0.727632 73.7861 0.646515C73.4886 0.572157 73.2014 0.589057 72.9242 0.697213C72.6538 0.805369 72.4409 0.987883 72.2854 1.24475L66.2827 11.6784L60.2801 1.24475C60.2057 1.11632 60.1145 1.00816 60.0063 0.920285C59.8982 0.825648 59.7765 0.754671 59.6413 0.707353C59.5128 0.653275 59.3777 0.622856 59.2357 0.616096C59.0937 0.602576 58.9518 0.612716 58.8098 0.646515C58.5192 0.727632 58.2826 0.886486 58.1001 1.12308C57.9243 1.35967 57.8364 1.63006 57.8364 1.93425V15.349H60.4727V6.68974L65.1674 14.913C65.2823 15.1225 65.4378 15.2814 65.6338 15.3895C65.8366 15.4977 66.0529 15.5518 66.2827 15.5518C66.5193 15.5518 66.739 15.4977 66.9418 15.3895C67.1514 15.2814 67.3136 15.1225 67.4285 14.913L72.1029 6.68974V15.349ZM144.145 11.3844C144.327 10.7828 144.419 10.144 144.419 9.468V6.68974C144.419 5.81097 144.266 4.9998 143.962 4.25623C143.658 3.50589 143.236 2.86372 142.695 2.3297C142.154 1.78891 141.512 1.36643 140.768 1.06224C140.031 0.758052 139.227 0.605957 138.355 0.605957H134.786C133.914 0.605957 133.106 0.758052 132.363 1.06224C131.619 1.36643 130.977 1.78891 130.436 2.3297C129.895 2.86372 129.469 3.50589 129.158 4.25623C128.854 4.9998 128.702 5.81097 128.702 6.68974V9.468C128.702 10.3535 128.854 11.1681 129.158 11.9117C129.469 12.6552 129.895 13.2974 130.436 13.8382C130.977 14.379 131.619 14.8014 132.363 15.1056C133.106 15.4031 133.914 15.5518 134.786 15.5518H137.382L139.917 17.5898H143.739L140.657 15.1462C141.225 14.9366 141.738 14.6494 142.198 14.2843C142.664 13.9193 143.06 13.4934 143.384 13.0067C143.716 12.52 143.969 11.9792 144.145 11.3844ZM141.529 5.28033C141.698 5.69943 141.782 6.16924 141.782 6.68974V9.468C141.782 9.9885 141.698 10.4617 141.529 10.8875C141.367 11.3067 141.133 11.6683 140.829 11.9725C140.525 12.2699 140.16 12.5031 139.734 12.6721C139.315 12.8344 138.849 12.9155 138.335 12.9155H134.786C134.272 12.9155 133.802 12.8344 133.377 12.6721C132.957 12.5031 132.596 12.2699 132.292 11.9725C131.987 11.6683 131.751 11.3067 131.582 10.8875C131.42 10.4617 131.338 9.9885 131.338 9.468V6.68974C131.338 6.16924 131.42 5.69943 131.582 5.28033C131.751 4.85446 131.987 4.49282 132.292 4.19539C132.596 3.8912 132.957 3.65799 133.377 3.49575C133.802 3.32676 134.272 3.24226 134.786 3.24226H138.355C138.862 3.24226 139.325 3.32676 139.744 3.49575C140.17 3.65799 140.532 3.8912 140.829 4.19539C141.133 4.49282 141.367 4.85446 141.529 5.28033ZM161.271 14.0207C161.271 14.2099 161.237 14.3857 161.169 14.5479C161.102 14.7102 161.007 14.8521 160.885 14.9738C160.764 15.0887 160.622 15.18 160.46 15.2476C160.297 15.3152 160.125 15.349 159.942 15.349H154.001C153.44 15.349 152.872 15.2881 152.297 15.1664C151.723 15.0448 151.165 14.8589 150.624 14.6088C150.09 14.3519 149.586 14.0274 149.113 13.6354C148.64 13.2433 148.224 12.7802 147.866 12.2462C147.515 11.7054 147.237 11.0903 147.035 10.4008C146.832 9.70456 146.73 8.93056 146.73 8.07883V0.808716H149.367V8.07883C149.367 8.82241 149.468 9.45107 149.671 9.96481C149.881 10.4785 150.144 10.9078 150.462 11.2525C150.78 11.5973 151.128 11.8677 151.506 12.0637C151.885 12.2597 152.243 12.4051 152.581 12.4997C152.926 12.5944 153.227 12.6552 153.483 12.6822C153.747 12.7025 153.919 12.7126 154.001 12.7126H158.634V0.808716H161.271V14.0207ZM176.298 9.40713H167.973V6.75054H176.298V9.40713ZM177.484 15.349H167.973C167.608 15.349 167.209 15.2847 166.777 15.1563C166.344 15.0279 165.942 14.8183 165.57 14.5276C165.205 14.2302 164.897 13.8483 164.647 13.3819C164.404 12.9087 164.282 12.3307 164.282 11.648V2.13701C164.282 1.95449 164.316 1.78212 164.384 1.61989C164.451 1.45765 164.542 1.3157 164.657 1.19402C164.779 1.07235 164.921 0.97771 165.083 0.910112C165.245 0.842515 165.421 0.808716 165.611 0.808716H177.484V3.44502H166.919V11.648C166.919 11.9927 167.01 12.2564 167.192 12.4389C167.375 12.6214 167.642 12.7126 167.993 12.7126H177.484V15.349ZM126.512 5.69602C126.512 6.29764 126.438 6.83504 126.289 7.30822C126.14 7.7814 125.937 8.20051 125.681 8.56554C125.43 8.9238 125.14 9.23137 124.809 9.48824C124.477 9.74511 124.129 9.95805 123.764 10.127C123.406 10.2893 123.041 10.4076 122.669 10.4819C122.304 10.5563 121.959 10.5935 121.635 10.5935L127.141 15.349H123.065L117.569 10.5935H115.673V7.95716H121.635C121.966 7.93012 122.267 7.86252 122.537 7.75437C122.814 7.63945 123.051 7.48736 123.247 7.29808C123.45 7.10881 123.605 6.88236 123.713 6.61873C123.822 6.34834 123.876 6.04077 123.876 5.69602V4.03312C123.876 3.88441 123.855 3.77287 123.815 3.69851C123.781 3.61739 123.734 3.55994 123.673 3.52614C123.619 3.48558 123.558 3.46192 123.49 3.45516C123.43 3.4484 123.372 3.44502 123.318 3.44502H114.618V15.349H111.982V2.13701C111.982 1.95449 112.016 1.78212 112.083 1.61989C112.151 1.45765 112.242 1.3157 112.357 1.19402C112.479 1.07235 112.621 0.97771 112.783 0.910112C112.945 0.842515 113.121 0.808716 113.31 0.808716H123.318C123.906 0.808716 124.403 0.916872 124.809 1.13318C125.214 1.34274 125.542 1.60975 125.792 1.93422C126.049 2.25192 126.231 2.59667 126.34 2.96846C126.455 3.34024 126.512 3.68837 126.512 4.01284V5.69602ZM106.273 15.349H108.91V2.13701C108.91 1.95449 108.876 1.78212 108.808 1.61989C108.741 1.45765 108.646 1.3157 108.524 1.19402C108.403 1.07235 108.261 0.97771 108.098 0.910112C107.936 0.842515 107.764 0.808716 107.581 0.808716H101.64C100.592 0.808716 99.6251 0.987849 98.7396 1.34612C97.854 1.70438 97.0868 2.20461 96.4379 2.84678C95.7889 3.48896 95.282 4.25619 94.9169 5.14848C94.5519 6.04077 94.3694 7.01755 94.3694 8.07883V15.349H97.0057V11.7798H106.273V15.349ZM106.273 3.44502V9.1435H97.0057V8.07883C97.0057 7.34202 97.1071 6.71674 97.3099 6.203C97.5194 5.6825 97.7831 5.24988 98.1008 4.90513C98.4185 4.56038 98.7666 4.28999 99.1452 4.09396C99.5237 3.89792 99.882 3.75259 100.22 3.65795C100.565 3.56332 100.866 3.50586 101.122 3.48558C101.386 3.45854 101.558 3.44502 101.64 3.44502H106.273ZM92.3416 12.155C92.3416 12.4794 92.2842 12.8276 92.1693 13.1994C92.0611 13.5711 91.8786 13.9159 91.6217 14.2336C91.3716 14.5513 91.0437 14.8183 90.6382 15.0346C90.2326 15.2442 89.7357 15.349 89.1476 15.349H79.1398C78.9505 15.349 78.7748 15.3152 78.6126 15.2476C78.4503 15.18 78.3084 15.0887 78.1867 14.9738C78.0718 14.8521 77.9805 14.7102 77.9129 14.5479C77.8453 14.3857 77.8115 14.2099 77.8115 14.0207V2.13701C77.8115 1.95449 77.8453 1.78212 77.9129 1.61989C77.9805 1.45765 78.0718 1.3157 78.1867 1.19402C78.3084 1.07235 78.4503 0.97771 78.6126 0.910112C78.7748 0.842515 78.9505 0.808716 79.1398 0.808716H87.9613C88.2858 0.808716 88.6339 0.866174 89.0057 0.98109C89.3775 1.09601 89.7222 1.2819 90.0399 1.53877C90.3644 1.78888 90.6314 2.11673 90.841 2.52231C91.0573 2.9279 91.1654 3.42474 91.1654 4.01284V4.50968C91.1654 4.97611 91.0877 5.47971 90.9322 6.02049C90.7767 6.55451 90.5266 7.06149 90.1819 7.54143C90.4793 7.72395 90.7565 7.94364 91.0133 8.20051C91.277 8.45738 91.5068 8.75481 91.7028 9.0928C91.8989 9.43079 92.0543 9.81271 92.1693 10.2386C92.2842 10.6644 92.3416 11.1342 92.3416 11.648V12.155ZM89.7053 11.648C89.7053 11.3032 89.6512 10.9957 89.5431 10.7253C89.4349 10.4481 89.2828 10.2115 89.0868 10.0155C88.8908 9.81947 88.6542 9.67076 88.377 9.56936C88.0999 9.4612 87.7889 9.40713 87.4442 9.40713H81.5023V6.75054H86.2578C86.6026 6.75054 86.9135 6.69984 87.1907 6.59845C87.4678 6.49029 87.7044 6.3382 87.9005 6.14216C88.0965 5.94613 88.2452 5.71292 88.3466 5.44253C88.4548 5.16538 88.5088 4.85443 88.5088 4.50968V4.01284C88.5088 3.63429 88.3263 3.44502 87.9613 3.44502H80.4478V12.7126H89.1476C89.195 12.7126 89.2524 12.7093 89.32 12.7025C89.3876 12.6957 89.4484 12.6755 89.5025 12.6417C89.5566 12.6079 89.6039 12.5504 89.6445 12.4693C89.685 12.3882 89.7053 12.2766 89.7053 12.1347V11.648ZM54.0948 9.40713H45.7702V6.75054H54.0948V9.40713ZM55.2812 15.349H45.7702C45.4051 15.349 45.0063 15.2847 44.5737 15.1563C44.1411 15.0279 43.7389 14.8183 43.3671 14.5276C43.0021 14.2302 42.6945 13.8483 42.4444 13.3819C42.201 12.9087 42.0793 12.3307 42.0793 11.648V2.13701C42.0793 1.95449 42.1131 1.78212 42.1807 1.61989C42.2483 1.45765 42.3396 1.3157 42.4545 1.19402C42.5762 1.07235 42.7181 0.97771 42.8804 0.910112C43.0426 0.842515 43.2184 0.808716 43.4076 0.808716H55.2812V3.44502H44.7157V11.648C44.7157 11.9927 44.8069 12.2564 44.9894 12.4389C45.1719 12.6214 45.4389 12.7126 45.7905 12.7126H55.2812V15.349ZM242.303 0.6474H227.979V3.85874H233.54V15.2336H236.751V3.85874H242.303V0.6474ZM228.671 3.16654V1.3396H241.611V3.16654H236.059V14.5414H234.232V3.16654H228.671ZM197.47 1.3396C197.331 1.3396 197.209 1.36416 197.099 1.40987C196.987 1.45679 196.89 1.52098 196.808 1.60292C196.729 1.68647 196.666 1.78509 196.617 1.90173C196.571 2.01295 196.547 2.13226 196.547 2.26276V11.351C196.547 11.9621 196.656 12.456 196.856 12.8469C197.075 13.2549 197.34 13.5811 197.647 13.8322C197.969 14.0833 198.314 14.2621 198.683 14.3716C199.071 14.487 199.419 14.5414 199.728 14.5414H208.47V12.7145H199.747C199.353 12.7145 198.997 12.6115 198.737 12.3515C198.478 12.0927 198.374 11.7404 198.374 11.351V3.16654H208.47V1.3396H197.47ZM196.833 0.770913C197.034 0.687429 197.247 0.6474 197.47 0.6474H209.162V3.85874H199.066V11.351C199.066 11.6205 199.136 11.772 199.226 11.862C199.315 11.9509 199.469 12.0223 199.747 12.0223H209.162V15.2336H199.728C199.339 15.2336 198.924 15.1653 198.486 15.0352C198.029 14.8996 197.606 14.6786 197.218 14.3754L197.215 14.3732L197.213 14.371C196.824 14.0546 196.503 13.6524 196.245 13.1714L196.242 13.1662C195.978 12.6532 195.855 12.0433 195.855 11.351V2.26276C195.855 2.04445 195.895 1.83433 195.978 1.6355C196.058 1.44378 196.168 1.27227 196.308 1.12404L196.311 1.12045L196.315 1.11695C196.464 0.968025 196.637 0.852513 196.833 0.770913ZM199.382 6.32515H208.028V9.55586H199.382V6.32515ZM200.074 7.01734V8.86366H207.336V7.01734H200.074ZM183.269 1.48777C183.571 1.39089 183.922 1.3396 184.326 1.3396H193.068V3.16654H184.326C183.936 3.16654 183.584 3.27072 183.325 3.52951C183.064 3.79061 182.962 4.15149 182.962 4.54936V11.351C182.962 11.737 183.068 12.0847 183.321 12.347L183.325 12.3515L183.33 12.3559C183.592 12.6088 183.94 12.7145 184.326 12.7145H193.068V14.5414H184.326C184.12 14.5414 183.891 14.5186 183.639 14.4709C183.4 14.4181 183.159 14.3388 182.916 14.2321C182.684 14.1276 182.459 13.9934 182.241 13.8285C182.03 13.6633 181.841 13.466 181.673 13.2349C181.514 13.0019 181.384 12.7308 181.284 12.4186C181.186 12.1091 181.135 11.7544 181.135 11.351V4.52998C181.135 4.32377 181.158 4.09851 181.206 3.85335C181.259 3.60755 181.338 3.36702 181.444 3.13146L181.445 3.12856C181.549 2.89158 181.686 2.6645 181.856 2.44719C182.022 2.23608 182.219 2.04949 182.451 1.88744L182.452 1.88647C182.685 1.7216 182.956 1.58796 183.269 1.48777ZM184.326 0.6474C183.864 0.6474 183.44 0.705916 183.057 0.828651C182.685 0.947984 182.35 1.11131 182.053 1.32084C181.768 1.52041 181.52 1.75352 181.311 2.02019C181.107 2.28044 180.94 2.5567 180.812 2.84884C180.686 3.12859 180.592 3.4162 180.528 3.7114L180.527 3.71765C180.472 4.00093 180.443 4.27199 180.443 4.52998V11.351C180.443 11.8128 180.502 12.2394 180.624 12.6273L180.624 12.6291C180.743 12.9994 180.902 13.3338 181.104 13.6293L181.107 13.6334L181.11 13.6373C181.315 13.9204 181.55 14.167 181.816 14.3751L181.821 14.3787C182.079 14.5743 182.35 14.7365 182.633 14.864L182.636 14.8653C182.921 14.9901 183.207 15.0847 183.496 15.148L183.5 15.1491L183.505 15.15C183.794 15.205 184.068 15.2336 184.326 15.2336H193.76V12.0223H184.326C184.07 12.0223 183.914 11.9556 183.815 11.862C183.721 11.7623 183.654 11.6071 183.654 11.351V4.54936C183.654 4.26254 183.727 4.10667 183.815 4.01897C183.905 3.92895 184.056 3.85874 184.326 3.85874H193.76V0.6474H184.326ZM0 0.59613H35.803V17.3802H0V0.59613ZM0.940414 1.53654V16.4398H34.8626V1.53654H25.6936V1.6699H24.7532V1.53654H0.940414ZM17.6611 7.89891C17.7521 7.89304 18.0764 7.89011 18.1731 7.89011C19.4362 7.89011 20.2298 8.31266 20.2298 8.83205C20.2298 9.35144 19.4333 9.77106 18.1731 9.77106C18.0764 9.77106 17.7549 9.76813 17.6611 9.76226L15.8148 9.71237C15.7949 9.71237 15.7779 9.72118 15.7665 9.73878L12.9957 14.0113C12.9132 14.1463 12.7682 14.2284 12.6117 14.2284H11.9375C11.7782 14.2284 11.7242 14.0641 11.781 13.9115L13.2062 9.71824C13.2205 9.68009 13.1949 9.64195 13.155 9.63901L9.69303 9.55978C9.62192 9.55685 9.5508 9.59206 9.50528 9.65075L8.43283 10.9918C8.34749 11.1033 8.21379 11.1708 8.07439 11.1708H7.59933C7.51968 11.1708 7.46563 11.0915 7.49123 11.0152L8.05733 8.99931C8.1 8.88781 8.1 8.76163 8.05733 8.65012L7.49123 6.63418C7.46563 6.55789 7.51968 6.47866 7.59933 6.47866H8.07724C8.21663 6.47866 8.35033 6.54322 8.43567 6.65766L9.48821 7.97814C9.53373 8.03683 9.602 8.07204 9.67597 8.06911L13.1579 8.01629C13.1977 8.01629 13.2233 7.97521 13.2091 7.93706L11.7839 3.74673C11.727 3.59414 11.781 3.42982 11.9404 3.42982H12.6145C12.7682 3.42982 12.9161 3.51198 12.9986 3.64696L15.7665 7.92239C15.775 7.93999 15.7949 7.9488 15.8148 7.9488L17.6611 7.89891ZM24.7532 5.37278V3.52134H25.6936V5.37278H24.7532ZM24.7532 9.07566V7.22422H25.6936V9.07566H24.7532ZM24.7532 12.7785V10.9271H25.6936V12.7785H24.7532ZM24.7532 15.5557V14.63H25.6936V15.5557H24.7532ZM33.4271 1.65621H29.5479V3.06383H33.4271V1.65621ZM29.5479 4.00722H33.4271V4.83008H29.5479V4.00722ZM33.4271 8.12435H29.5479V8.94721H33.4271V8.12435ZM29.5479 14.2626H33.4271V15.0855H29.5479V14.2626ZM33.4271 5.82926H29.5479V7.1811H33.4271V5.82926ZM29.5479 9.89045H33.4271V11.2423H29.5479V9.89045ZM33.4271 12.2033H29.5479V13.5552H33.4271V12.2033Z" fill="url(#paint0_linear_243_2977)"/>
<defs>
<linearGradient id="paint0_linear_243_2977" x1="1.93715e-06" y1="9" x2="260" y2="9.00006" gradientUnits="userSpaceOnUse">
<stop stop-color="#F97372"/>
<stop offset="1" stop-color="#F6A681"/>
</linearGradient>
</defs>
</svg>
