<svg width="102" height="54" viewBox="0 0 102 54" fill="none" xmlns="http://www.w3.org/2000/svg">
<path opacity="0.1" d="M57.9553 31.2046V25.0683L69.6599 6.65918H75.2281V14.841H72.0462L65.7394 24.841V25.0683H83.0121V31.2046H57.9553ZM72.1031 35.7501V29.3296L72.2735 26.6592V6.65918H79.6599V35.7501H72.1031Z" fill="black"/>
<path opacity="0.1" d="M41.6911 36.5458C39.0491 36.5363 36.7669 35.9255 34.8445 34.7134C32.9222 33.5013 31.4402 31.7541 30.3985 29.4719C29.3569 27.1898 28.8408 24.453 28.8502 21.2617C28.8597 18.061 29.3805 15.3432 30.4127 13.1083C31.4544 10.8735 32.9317 9.17365 34.8445 8.00888C36.7669 6.84411 39.0491 6.26172 41.6911 6.26172C44.3332 6.26172 46.6154 6.84884 48.5377 8.02308C50.4601 9.18786 51.9421 10.8877 52.9837 13.1225C54.0254 15.3574 54.5415 18.0704 54.532 21.2617C54.532 24.4719 54.0112 27.2182 52.9695 29.5004C51.9279 31.7826 50.4459 33.5297 48.5235 34.7418C46.6106 35.9445 44.3332 36.5458 41.6911 36.5458ZM41.6911 30.1254C43.0548 30.1254 44.1722 29.4151 45.0434 27.9947C45.9241 26.5648 46.3597 24.3204 46.3502 21.2617C46.3502 19.2636 46.1514 17.6301 45.7536 16.3612C45.3559 15.0922 44.8067 14.1547 44.1059 13.5487C43.4052 12.9331 42.6002 12.6254 41.6911 12.6254C40.3275 12.6254 39.2148 13.3166 38.3531 14.6992C37.4913 16.0818 37.051 18.2693 37.032 21.2617C37.0226 23.2977 37.2167 24.9738 37.6144 26.2901C38.0122 27.5969 38.5614 28.5629 39.2622 29.1879C39.9724 29.8129 40.782 30.1254 41.6911 30.1254Z" fill="black"/>
<path opacity="0.1" d="M0.650635 31.2046V25.0683L12.3552 6.65918H17.9234V14.841H14.7415L8.43473 24.841V25.0683H25.7075V31.2046H0.650635ZM14.7984 35.7501V29.3296L14.9688 26.6592V6.65918H22.3552V35.7501H14.7984Z" fill="black"/>
<path fill-rule="evenodd" clip-rule="evenodd" d="M56.0584 38.6674C56.1742 38.9181 56.0648 39.2152 55.8141 39.331L49.6399 42.1821C49.3892 42.2979 49.0921 42.1885 48.9763 41.9378C48.8606 41.6871 48.97 41.39 49.2207 41.2743L55.3949 38.4231C55.6456 38.3073 55.9427 38.4167 56.0584 38.6674Z" fill="black"/>
<path fill-rule="evenodd" clip-rule="evenodd" d="M59.1456 43.5463C59.2614 43.797 59.152 44.0941 58.9013 44.2099L52.7271 47.061C52.4764 47.1768 52.1793 47.0674 52.0635 46.8167C51.9477 46.566 52.0571 46.2689 52.3078 46.1532L58.482 43.302C58.7327 43.1862 59.0298 43.2956 59.1456 43.5463Z" fill="black"/>
<path opacity="0.1" d="M97.8136 3.66413C97.7562 3.69728 97.5647 3.81018 97.5127 3.84487L96.4337 4.5073C96.4219 4.51413 96.407 4.51573 96.3959 4.5082L93.2872 2.91868C93.192 2.86682 93.076 2.86875 92.9848 2.9214L92.5845 3.15249C92.4899 3.20709 92.5142 3.32318 92.6003 3.39427L94.8827 5.39349C94.9042 5.41126 94.9031 5.44443 94.8794 5.45808L92.8304 6.68291C92.7875 6.71001 92.7349 6.7125 92.6877 6.69326L91.6102 6.27009C91.5203 6.2314 91.4188 6.2389 91.3361 6.28668L91.0524 6.45049C91.0051 6.47779 91.0001 6.54335 91.0415 6.57987L92.0686 7.58266C92.1321 7.63424 92.1754 7.70915 92.1882 7.78997L92.5432 9.18084C92.5541 9.23491 92.6133 9.26342 92.6606 9.23612L92.9427 9.07329C93.0254 9.02551 93.0817 8.93961 93.0941 8.84416L93.2712 7.68042C93.2781 7.62997 93.3082 7.58469 93.3514 7.56206L95.4339 6.42244C95.4586 6.41053 95.4869 6.4244 95.4915 6.45193L96.0827 9.42991C96.1012 9.54 96.1896 9.61903 96.2842 9.56443L96.6845 9.33334C96.7773 9.27971 96.8353 9.1812 96.838 9.07279L97.0185 5.58656C97.0192 5.57221 97.0264 5.56114 97.0382 5.55431L98.1513 4.95111C98.2091 4.92242 98.4009 4.81398 98.4584 4.78082C99.2065 4.34887 99.5356 3.82673 99.3575 3.51838C99.1795 3.21002 98.5635 3.2312 97.8136 3.66413Z" fill="black"/>
<path fill-rule="evenodd" clip-rule="evenodd" d="M91.1786 28.5503C93.8433 31.4793 95.6522 35.6056 96.5158 38.4963L94.5995 39.0688C93.7836 36.3379 92.0885 32.5224 89.6993 29.8962C88.5101 28.5891 87.1983 27.631 85.793 27.2027C84.417 26.7833 82.8701 26.8456 81.1168 27.7191C76.2875 30.125 73.4831 32.3406 71.1443 34.2576C70.9941 34.3807 70.8455 34.5029 70.6979 34.6243C68.5441 36.3954 66.6218 37.9761 63.7378 39.1077L63.0072 37.2459C65.588 36.2333 67.2837 34.8403 69.4743 33.0409C69.6064 32.9324 69.7404 32.8223 69.8764 32.7108C72.2702 30.7487 75.2059 28.4294 80.2249 25.9289C82.411 24.8399 84.4846 24.7131 86.3761 25.2895C88.2382 25.8571 89.8409 27.0799 91.1786 28.5503Z" fill="black"/>
<path fill-rule="evenodd" clip-rule="evenodd" d="M90.368 8.58365C90.5101 8.82044 90.4333 9.12757 90.1965 9.26964L82.6965 13.7696C82.4597 13.9117 82.1526 13.8349 82.0105 13.5981C81.8685 13.3614 81.9452 13.0542 82.182 12.9121L89.682 8.41215C89.9188 8.27008 90.226 8.34686 90.368 8.58365Z" fill="black" fill-opacity="0.1"/>
<path fill-rule="evenodd" clip-rule="evenodd" d="M36.118 38.4362C36.2601 38.673 36.1833 38.9801 35.9465 39.1222L22.7572 47.0358C22.5204 47.1779 22.2133 47.1011 22.0712 46.8643C21.9291 46.6275 22.0059 46.3204 22.2427 46.1783L35.432 38.2647C35.6688 38.1226 35.976 38.1994 36.118 38.4362Z" fill="black" fill-opacity="0.1"/>
<path d="M31.3969 51.3738C33.8737 53.2863 39.4106 52.5626 43.2852 51.6182C44.7742 51.2553 45.8552 49.9573 45.5807 48.4494C45.2589 46.6817 44.4105 44.4069 42.5628 42.1738C41.7025 41.1342 40.277 40.7715 39.0201 41.2624C33.3648 43.4708 27.9819 48.7368 31.3969 51.3738Z" fill="#271C3A"/>
<path d="M66.1082 34.6315C63.3912 33.0789 58.0071 34.5596 54.2998 36.0295C52.8751 36.5944 51.9835 38.029 52.4634 39.4846C53.026 41.1911 54.1801 43.327 56.3183 45.2839C57.3137 46.1949 58.7756 46.3574 59.9528 45.6978C65.2494 42.7303 69.8543 36.7721 66.1082 34.6315Z" fill="#271C3A"/>
<path fill-rule="evenodd" clip-rule="evenodd" d="M54.2301 39.5588C54.284 39.6859 54.2246 39.8327 54.0975 39.8865L49.5975 41.7928C49.4703 41.8466 49.3236 41.7872 49.2697 41.6601C49.2159 41.5329 49.2753 41.3862 49.4024 41.3324L53.9024 39.4261C54.0296 39.3723 54.1763 39.4317 54.2301 39.5588Z" fill="#6B27F3"/>
<path fill-rule="evenodd" clip-rule="evenodd" d="M11.4049 34.5858C11.6337 34.7404 11.6939 35.0512 11.5393 35.28C9.07186 38.9318 8.50178 41.632 9.03176 43.6084C9.55881 45.574 11.2217 46.9949 13.6412 47.9774C18.4948 49.9483 25.9841 49.9802 31.4452 49.3781C31.7197 49.3478 31.9667 49.5458 31.997 49.8202C32.0272 50.0947 31.8293 50.3418 31.5548 50.372C26.0576 50.9782 18.3593 50.9726 13.265 48.9039C10.7106 47.8667 8.7094 46.2673 8.06588 43.8674C7.42528 41.4785 8.17813 38.4683 10.7107 34.7201C10.8653 34.4913 11.1761 34.4312 11.4049 34.5858Z" fill="black"/>
<path fill-rule="evenodd" clip-rule="evenodd" d="M53.3995 37.5172C53.4591 37.3926 53.6084 37.34 53.7329 37.3995C54.353 37.6961 54.9358 38.22 55.4684 38.8541C56.0029 39.4905 56.4983 40.2516 56.9401 41.0404C57.8234 42.6176 58.5045 44.3267 58.8627 45.4224C58.9056 45.5536 58.834 45.6948 58.7027 45.7377C58.5715 45.7806 58.4303 45.709 58.3874 45.5777C58.0373 44.5067 57.3684 42.8284 56.5038 41.2847C56.0716 40.5131 55.5935 39.7805 55.0856 39.1757C54.5758 38.5687 54.0471 38.104 53.5172 37.8506C53.3926 37.791 53.34 37.6418 53.3995 37.5172Z" fill="#6B27F3"/>
<path fill-rule="evenodd" clip-rule="evenodd" d="M56.6456 44.8421C56.7016 44.9683 56.6446 45.116 56.5184 45.172L52.7031 46.8634C52.5768 46.9193 52.4292 46.8624 52.3732 46.7361C52.3172 46.6099 52.3742 46.4622 52.5004 46.4063L56.3157 44.7149C56.442 44.6589 56.5896 44.7159 56.6456 44.8421Z" fill="#6B27F3"/>
<path fill-rule="evenodd" clip-rule="evenodd" d="M40.0426 41.9022C40.0966 42.0293 40.0374 42.1761 39.9104 42.2301C38.5983 42.788 36.6043 43.7837 34.8926 44.9534C34.0366 45.5383 33.2588 46.1617 32.6729 46.7901C32.0831 47.4228 31.7106 48.0365 31.622 48.6013C31.6006 48.7377 31.4727 48.8309 31.3363 48.8095C31.1999 48.7881 31.1067 48.6602 31.1281 48.5238C31.2395 47.8136 31.6909 47.1102 32.3072 46.4491C32.9275 45.7838 33.7379 45.1368 34.6106 44.5405C36.3562 43.3477 38.3809 42.3371 39.7147 41.77C39.8418 41.716 39.9886 41.7752 40.0426 41.9022Z" fill="#6B27F3"/>
<path d="M42.5524 38.2396L42.3435 39.3102C42.2989 39.5387 42.6146 39.6461 42.7187 39.4379L43.711 37.4534C43.8164 37.2425 43.5337 37.0547 43.3802 37.2338L42.5969 38.1477C42.5744 38.174 42.559 38.2056 42.5524 38.2396Z" fill="url(#paint0_linear_761_1006)"/>
<path d="M49.6333 49.924L51.2538 49.546C51.47 49.4956 51.4553 49.1829 51.2352 49.1531L47.5425 48.6524C47.3112 48.621 47.2227 48.9436 47.4375 49.0347L49.5097 49.9134C49.5487 49.9299 49.592 49.9337 49.6333 49.924Z" fill="url(#paint1_linear_761_1006)"/>
<path d="M49.1495 35.1149L45.2804 40.4604C45.1442 40.6485 44.8509 40.4926 44.9305 40.2746L45.8675 37.708C45.8725 37.6943 45.8789 37.6812 45.8868 37.6689L48.8189 33.0771C48.9265 32.9086 49.1875 32.9848 49.1875 33.1847V34.9976C49.1875 35.0397 49.1742 35.0808 49.1495 35.1149Z" fill="url(#paint2_linear_761_1006)"/>
<defs>
<linearGradient id="paint0_linear_761_1006" x1="42.3392" y1="38.3557" x2="43.734" y2="38.3557" gradientUnits="userSpaceOnUse">
<stop stop-color="#F97372"/>
<stop offset="1" stop-color="#F6A681"/>
</linearGradient>
<linearGradient id="paint1_linear_761_1006" x1="50.0264" y1="50.2606" x2="48.6961" y2="47.9407" gradientUnits="userSpaceOnUse">
<stop stop-color="#F97372"/>
<stop offset="1" stop-color="#F6A681"/>
</linearGradient>
<linearGradient id="paint2_linear_761_1006" x1="44.917" y1="36.7645" x2="49.1875" y2="36.7645" gradientUnits="userSpaceOnUse">
<stop stop-color="#F97372"/>
<stop offset="1" stop-color="#F6A681"/>
</linearGradient>
</defs>
</svg>
