<svg width="85" height="87" viewBox="0 0 85 87" fill="none" xmlns="http://www.w3.org/2000/svg">
<path d="M13.5215 60.8115C11.3123 60.8115 9.52148 59.0207 9.52148 56.8115L9.52148 32.5079C9.52148 30.2988 11.3123 28.5079 13.5215 28.5079L75.9003 28.5079C78.1094 28.5079 79.9003 30.2988 79.9003 32.5079L79.9003 56.8115C79.9003 59.0207 78.1094 60.8115 75.9003 60.8115L13.5215 60.8115Z" fill="url(#paint0_linear_647_6877)"/>
<path d="M12.1367 25.7383H77.6698V80.4268H12.1367V25.7383Z" fill="white"/>
<path d="M12.1367 25.7383H77.6698V80.4268H12.1367V25.7383Z" fill="white"/>
<path d="M18.1685 44.6602C18.1685 43.9369 18.7548 43.3506 19.478 43.3506H43.5938C44.317 43.3506 44.9033 43.9369 44.9033 44.6602C44.9033 45.3834 44.317 45.9697 43.5938 45.9697H19.478C18.7548 45.9697 18.1685 45.3834 18.1685 44.6602Z" fill="#D9D9D9"/>
<path d="M18.1685 51.8232C18.1685 51.1 18.7548 50.5137 19.478 50.5137H53.6499C54.3732 50.5137 54.9595 51.1 54.9595 51.8232C54.9595 52.5465 54.3732 53.1328 53.6499 53.1328H19.478C18.7548 53.1328 18.1685 52.5465 18.1685 51.8232Z" fill="#D9D9D9"/>
<path d="M18.1685 58.9863C18.1685 58.2631 18.7548 57.6768 19.478 57.6768H35.6112C36.3345 57.6768 36.9208 58.2631 36.9208 58.9863C36.9208 59.7096 36.3345 60.2959 35.6112 60.2959H19.478C18.7548 60.2959 18.1685 59.7096 18.1685 58.9863Z" fill="#D9D9D9"/>
<rect x="14.0859" y="42.9805" width="15.8068" height="14.3864" rx="7.19318" transform="rotate(-11.71 14.0859 42.9805)" fill="url(#paint1_linear_647_6877)"/>
<path d="M23.7931 50.1718L23.7308 49.8713C23.6809 49.6303 23.6867 49.397 23.7482 49.1714C23.8117 48.9455 23.9306 48.7497 24.1052 48.5839C24.2797 48.4181 24.5107 48.3055 24.7982 48.2459C25.093 48.1848 25.3533 48.1947 25.5789 48.2755C25.8065 48.356 25.9933 48.4875 26.1394 48.67C26.2856 48.8525 26.384 49.0661 26.4347 49.3109L26.497 49.6113C26.547 49.8524 26.5403 50.0859 26.4768 50.3118C26.4153 50.5374 26.2963 50.7332 26.1199 50.8993C25.9435 51.0655 25.7097 51.1787 25.4186 51.2391C25.1274 51.2994 24.8688 51.2882 24.6428 51.2055C24.4167 51.1228 24.2306 50.9902 24.0845 50.8077C23.9402 50.6248 23.8431 50.4129 23.7931 50.1718ZM24.6989 49.6707L24.7612 49.9711C24.7831 50.0768 24.8308 50.1762 24.9042 50.2693C24.9791 50.3602 25.0899 50.3904 25.2364 50.36C25.3903 50.3281 25.481 50.2571 25.5084 50.147C25.5378 50.0365 25.5409 49.9256 25.5178 49.8143L25.4555 49.5139C25.4325 49.4026 25.387 49.2998 25.3191 49.2056C25.2512 49.1113 25.1375 49.0808 24.9781 49.1138C24.8315 49.1442 24.7422 49.2169 24.7099 49.3319C24.6795 49.4465 24.6758 49.5594 24.6989 49.6707ZM20.1353 47.5296L20.073 47.2292C20.0223 46.9844 20.0286 46.749 20.092 46.5231C20.1573 46.2968 20.2774 46.1017 20.4523 45.9378C20.6273 45.7739 20.8566 45.6626 21.1403 45.6037C21.4352 45.5426 21.6955 45.5525 21.9211 45.6334C22.1486 45.7139 22.3355 45.8454 22.4816 46.0279C22.6277 46.2103 22.7262 46.424 22.7769 46.6688L22.8392 46.9692C22.8899 47.214 22.8834 47.4484 22.8196 47.6725C22.7576 47.8961 22.6381 48.0892 22.4609 48.2516C22.2837 48.4141 22.0496 48.5255 21.7584 48.5858C21.4673 48.6462 21.2089 48.6359 20.9832 48.555C20.7575 48.4741 20.5718 48.3434 20.4261 48.1628C20.2822 47.9818 20.1853 47.7707 20.1353 47.5296ZM21.0522 47.0262L21.1145 47.3267C21.1375 47.4379 21.1854 47.5383 21.2581 47.6276C21.3308 47.717 21.4376 47.7471 21.5785 47.7179C21.7325 47.686 21.8232 47.615 21.8506 47.5048C21.8799 47.3943 21.8831 47.2834 21.86 47.1721L21.7977 46.8717C21.7747 46.7604 21.7292 46.6577 21.6613 46.5634C21.5934 46.4692 21.4797 46.4386 21.3202 46.4717C21.1737 46.502 21.0866 46.5762 21.0588 46.6941C21.0325 46.8098 21.0303 46.9205 21.0522 47.0262ZM21.5054 51.7601L24.2413 45.2511L25.0313 45.0874L22.2954 51.5963L21.5054 51.7601Z" fill="white"/>
<path d="M18.1685 37.4971C18.1685 36.7738 18.7548 36.1875 19.478 36.1875H60.2949C61.0182 36.1875 61.6045 36.7738 61.6045 37.4971C61.6045 38.2203 61.0182 38.8066 60.2949 38.8066H19.478C18.7548 38.8066 18.1685 38.2203 18.1685 37.4971Z" fill="#D9D9D9"/>
<path d="M7.67529 75.8867V52.5742C7.67529 51.1342 8.84268 49.9668 10.2827 49.9668C10.6923 49.9668 11.0962 50.0633 11.4615 50.2485L39.7365 64.5797C42.7983 66.1315 46.409 66.1652 49.4991 64.6706L79.4741 50.1728C79.7545 50.0372 80.0618 49.9668 80.3733 49.9668C81.5138 49.9668 82.4383 50.8914 82.4383 52.0319V75.8867C82.4383 81.9619 77.5135 86.8867 71.4383 86.8867H18.6753C12.6002 86.8867 7.67529 81.9619 7.67529 75.8867Z" fill="url(#paint2_linear_647_6877)"/>
<rect x="50.4443" y="25.0967" width="21.7095" height="20.8878" rx="10.4439" transform="rotate(5.85417 50.4443 25.0967)" fill="url(#paint3_linear_647_6877)"/>
<path d="M60.2209 39.7963L60.2757 39.2622C60.3173 38.8566 60.4412 38.4928 60.6475 38.1708C60.8574 37.8458 61.1377 37.598 61.4883 37.4274C61.8426 37.2538 62.2588 37.1916 62.7369 37.2406C63.2216 37.2903 63.6183 37.4342 63.9271 37.6725C64.2391 37.911 64.4616 38.2104 64.5946 38.5705C64.7312 38.9277 64.7786 39.3107 64.7367 39.7196L64.6819 40.2537C64.6403 40.6592 64.5162 41.0247 64.3096 41.35C64.1034 41.672 63.8232 41.9182 63.4693 42.0884C63.115 42.262 62.6988 42.3243 62.2207 42.2753C61.736 42.2256 61.3395 42.08 61.0311 41.8384C60.7223 41.6002 60.4996 41.3025 60.363 40.9453C60.2267 40.5848 60.1793 40.2018 60.2209 39.7963ZM61.7149 39.4097L61.6601 39.9439C61.6361 40.1779 61.6695 40.4046 61.7603 40.6238C61.8544 40.8434 62.0515 40.9685 62.3515 40.9993C62.6516 41.03 62.8665 40.9488 62.9962 40.7555C63.1293 40.5626 63.2082 40.3458 63.2328 40.1051L63.2876 39.571C63.3123 39.3303 63.2825 39.1007 63.1983 38.8821C63.1141 38.6636 62.917 38.5384 62.6071 38.5067C62.3104 38.4762 62.0936 38.559 61.9569 38.7549C61.8202 38.9507 61.7396 39.169 61.7149 39.4097ZM55.6173 33.467L55.6721 32.9329C55.714 32.5241 55.8398 32.1588 56.0493 31.8371C56.2592 31.5121 56.5395 31.2643 56.8902 31.0937C57.2442 30.9234 57.6569 30.8625 58.1284 30.9108C58.6164 30.9608 59.0147 31.105 59.3235 31.3432C59.6322 31.5814 59.8547 31.8808 59.991 32.2413C60.1277 32.5984 60.175 32.9814 60.1331 33.3903L60.0783 33.9244C60.0364 34.3333 59.9107 34.6985 59.7011 35.0202C59.4948 35.3422 59.2147 35.5884 58.8607 35.7587C58.5104 35.926 58.0946 35.985 57.6132 35.9356C57.1318 35.8862 56.7351 35.7423 56.423 35.5037C56.1146 35.2622 55.8919 34.9645 55.755 34.6106C55.6216 34.2538 55.5758 33.8726 55.6173 33.467ZM57.1212 33.0815L57.0664 33.6156C57.0417 33.8563 57.075 34.0846 57.1661 34.3005C57.2606 34.5168 57.4528 34.6398 57.743 34.6695C58.0463 34.7006 58.2629 34.6195 58.3926 34.4263C58.5257 34.2333 58.6046 34.0165 58.6293 33.7758L58.684 33.2417C58.7087 33.001 58.6789 32.7714 58.5947 32.5529C58.5105 32.3343 58.3118 32.209 57.9986 32.1769C57.7051 32.1468 57.4915 32.2315 57.3578 32.431C57.2241 32.6306 57.1452 32.8474 57.1212 33.0815ZM55.4811 41.2294L63.4831 31.8147L64.7789 31.9475L56.7769 41.3623L55.4811 41.2294Z" fill="white"/>
<path fill-rule="evenodd" clip-rule="evenodd" d="M63.1566 16.0963C63.3337 16.3081 63.3056 16.6235 63.0937 16.8006C62.8411 17.0118 62.5822 17.2217 62.3174 17.4301C62.1004 17.6009 61.786 17.5634 61.6152 17.3464C61.4444 17.1295 61.4819 16.8151 61.6989 16.6443C61.9563 16.4417 62.2075 16.2381 62.4523 16.0334C62.6642 15.8563 62.9795 15.8844 63.1566 16.0963ZM60.8175 17.9397C60.9769 18.1652 60.9234 18.4772 60.698 18.6366C60.16 19.0171 59.6027 19.393 59.0277 19.7643C58.7957 19.9141 58.4862 19.8475 58.3364 19.6156C58.1866 19.3836 58.2532 19.0741 58.4852 18.9243C59.0493 18.56 59.5949 18.1919 60.1205 17.8202C60.346 17.6607 60.658 17.7142 60.8175 17.9397ZM57.4905 20.1399C57.632 20.377 57.5546 20.6839 57.3175 20.8255C56.7504 21.1641 56.1692 21.4989 55.5752 21.8301C55.334 21.9645 55.0294 21.878 54.895 21.6368C54.7605 21.3956 54.8471 21.0911 55.0883 20.9566C55.6742 20.63 56.2468 20.3001 56.8048 19.9669C57.0419 19.8254 57.3489 19.9028 57.4905 20.1399ZM54.0171 22.1109C54.1453 22.3554 54.0511 22.6576 53.8065 22.7859C53.2219 23.0925 52.6268 23.3959 52.0225 23.6962C51.7752 23.8191 51.4751 23.7182 51.3522 23.4709C51.2294 23.2236 51.3302 22.9235 51.5775 22.8006C52.1757 22.5034 52.7643 22.2033 53.342 21.9003C53.5866 21.772 53.8888 21.8663 54.0171 22.1109ZM50.4606 23.9028C50.5787 24.1524 50.4721 24.4505 50.2225 24.5686C49.6243 24.8517 49.0185 25.132 48.4059 25.4094C48.1544 25.5233 47.8581 25.4117 47.7442 25.1602C47.6303 24.9086 47.7418 24.6124 47.9934 24.4984C48.6011 24.2232 49.2019 23.9453 49.7948 23.6647C50.0444 23.5466 50.3425 23.6532 50.4606 23.9028ZM46.8343 25.5639C46.9445 25.8171 46.8286 26.1116 46.5754 26.2218C45.9665 26.4868 45.3523 26.7491 44.7335 27.0089C44.4789 27.1158 44.1858 26.996 44.0789 26.7414C43.972 26.4868 44.0918 26.1937 44.3464 26.0868C44.9614 25.8287 45.5717 25.568 46.1763 25.3049C46.4295 25.1947 46.7241 25.3107 46.8343 25.5639ZM43.1617 27.12C43.2656 27.3758 43.1425 27.6675 42.8866 27.7714C42.2715 28.0213 41.6528 28.2688 41.0315 28.5139C40.7746 28.6152 40.4842 28.4891 40.3829 28.2322C40.2816 27.9753 40.4077 27.6849 40.6646 27.5836C41.2829 27.3397 41.8984 27.0935 42.5102 26.8449C42.7661 26.741 43.0577 26.8641 43.1617 27.12ZM39.456 28.5927C39.5549 28.8505 39.4262 29.1397 39.1684 29.2387C38.5471 29.4773 37.924 29.7135 37.2999 29.9474C37.0414 30.0444 36.7532 29.9133 36.6562 29.6547C36.5593 29.3962 36.6904 29.108 36.9489 29.0111C37.5707 28.778 38.1913 28.5427 38.81 28.3052C39.0677 28.2062 39.357 28.3349 39.456 28.5927ZM35.7247 30.0001C35.8198 30.2593 35.6867 30.5466 35.4275 30.6417C34.8014 30.8714 34.1753 31.0988 33.5498 31.3239C33.29 31.4175 33.0035 31.2827 32.91 31.0228C32.8165 30.763 32.9513 30.4766 33.2111 30.383C33.8348 30.1585 34.459 29.9318 35.083 29.7029C35.3423 29.6078 35.6295 29.7408 35.7247 30.0001ZM31.9733 31.3571C32.0655 31.6174 31.9292 31.9032 31.6689 31.9954C31.0397 32.2182 30.4121 32.4388 29.7869 32.6571C29.5262 32.7482 29.2411 32.6107 29.15 32.35C29.059 32.0893 29.1965 31.8041 29.4572 31.7131C30.0811 31.4951 30.7074 31.275 31.3351 31.0527C31.5954 30.9606 31.8811 31.0968 31.9733 31.3571ZM28.2126 32.6754C28.3027 32.9365 28.1642 33.2211 27.9032 33.3113C27.2695 33.5301 26.6393 33.7467 26.0136 33.961C25.7524 34.0505 25.4681 33.9113 25.3786 33.65C25.2891 33.3888 25.4284 33.1045 25.6896 33.015C26.3147 32.8009 26.944 32.5846 27.5767 32.3661C27.8377 32.2759 28.1224 32.4144 28.2126 32.6754ZM24.4363 33.9717C24.5254 34.2331 24.3857 34.5172 24.1243 34.6062C23.489 34.8226 22.8594 35.0367 22.2366 35.2484C21.9752 35.3373 21.6912 35.1974 21.6023 34.9359C21.5135 34.6745 21.6534 34.3905 21.9148 34.3016C22.5376 34.0899 23.1669 33.8759 23.8018 33.6596C24.0632 33.5706 24.3473 33.7103 24.4363 33.9717ZM20.6642 35.2549C20.7532 35.5163 20.6134 35.8003 20.352 35.8893C19.7159 36.1059 19.0883 36.32 18.4704 36.5316C18.2092 36.621 17.9249 36.4818 17.8354 36.2205C17.7459 35.9593 17.8852 35.675 18.1464 35.5855C18.7651 35.3737 19.3932 35.1594 20.0297 34.9427C20.2911 34.8537 20.5752 34.9934 20.6642 35.2549ZM16.8916 36.5452C16.9819 36.8062 16.8436 37.091 16.5827 37.1813C15.9419 37.4032 15.3139 37.6222 14.6999 37.8385C14.4394 37.9302 14.1539 37.7934 14.0622 37.533C13.9704 37.2725 14.1072 36.987 14.3676 36.8953C14.9836 36.6783 15.6134 36.4587 16.2555 36.2364C16.5164 36.146 16.8012 36.2843 16.8916 36.5452ZM13.1242 37.867C13.218 38.1267 13.0835 38.4133 12.8238 38.5071C12.1819 38.739 11.559 38.9675 10.9571 39.1928C10.6985 39.2895 10.4104 39.1583 10.3136 38.8997C10.2168 38.6411 10.348 38.353 10.6066 38.2562C11.2127 38.0294 11.8392 37.7995 12.4841 37.5666C12.7438 37.4728 13.0304 37.6073 13.1242 37.867ZM9.387 39.2542C9.48811 39.5112 9.36176 39.8015 9.10479 39.9026C8.46352 40.1549 7.85336 40.4028 7.27711 40.6464C7.02276 40.7539 6.7294 40.6349 6.62187 40.3806C6.51435 40.1262 6.63337 39.8328 6.88771 39.7253C7.47292 39.4779 8.09095 39.2268 8.73865 38.972C8.99562 38.8709 9.28589 38.9972 9.387 39.2542ZM5.70245 40.7877C5.82027 41.0374 5.71332 41.3354 5.46358 41.4532C4.81567 41.7588 4.23388 42.0561 3.7235 42.3451C3.48321 42.4812 3.17811 42.3967 3.04204 42.1564C2.90597 41.9161 2.99045 41.611 3.23074 41.4749C3.76784 41.1708 4.3726 40.8622 5.03692 40.5488C5.28667 40.431 5.58464 40.5379 5.70245 40.7877ZM2.20322 42.6981C2.38072 42.9096 2.35313 43.225 2.14159 43.4025C1.87788 43.6238 1.68115 43.8291 1.54443 44.0171C1.33347 44.3072 1.17338 44.5708 1.05646 44.8094C0.934945 45.0574 0.63542 45.1599 0.387449 45.0384C0.139478 44.9169 0.0369628 44.6174 0.158474 44.3694C0.305415 44.0695 0.497533 43.7564 0.735677 43.4289C0.933837 43.1565 1.19329 42.8928 1.4988 42.6365C1.71034 42.459 2.02572 42.4866 2.20322 42.6981ZM0.249559 46.0979C0.488538 45.9596 0.794432 46.0411 0.932793 46.2801C1.13347 46.6267 1.57972 46.9334 2.29892 47.1644C2.56183 47.2488 2.70651 47.5304 2.62207 47.7933C2.53762 48.0563 2.25603 48.2009 1.99312 48.1165C1.18687 47.8575 0.453027 47.4473 0.0673731 46.7812C-0.0709874 46.5422 0.01058 46.2363 0.249559 46.0979ZM9.69779 47.8198C9.73278 48.0937 9.53909 48.3442 9.26517 48.3791C8.94051 48.4206 8.59609 48.4582 8.23855 48.4899C7.9635 48.5144 7.7207 48.3112 7.69626 48.0361C7.67182 47.7611 7.87499 47.5183 8.15005 47.4938C8.49493 47.4632 8.82661 47.427 9.13846 47.3872C9.41238 47.3522 9.6628 47.5459 9.69779 47.8198ZM3.6398 47.9703C3.66628 47.6954 3.91058 47.494 4.18545 47.5205C4.81688 47.5813 5.488 47.603 6.16038 47.5954C6.43651 47.5923 6.66289 47.8136 6.66602 48.0897C6.66915 48.3658 6.44784 48.5922 6.17172 48.5953C5.4718 48.6033 4.76399 48.5809 4.08955 48.5159C3.81468 48.4894 3.61332 48.2451 3.6398 47.9703Z" fill="white"/>
<rect x="18.1685" y="7.31445" width="27.3031" height="27.3031" rx="13.6516" transform="rotate(-11.71 18.1685 7.31445)" fill="#7E54C6"/>
<path d="M35.2592 21.1951L35.1424 20.6318C35.0487 20.1798 35.0596 19.7423 35.175 19.3195C35.294 18.8959 35.5171 18.5287 35.8443 18.2179C36.1716 17.9071 36.6047 17.6958 37.1436 17.5841C37.6965 17.4695 38.1845 17.488 38.6076 17.6397C39.0342 17.7906 39.3845 18.0372 39.6585 18.3793C39.9325 18.7214 40.1171 19.122 40.2122 19.581L40.329 20.1443C40.4227 20.5963 40.4101 21.0341 40.2911 21.4577C40.1757 21.8806 39.9526 22.2478 39.6219 22.5593C39.2912 22.8708 38.8528 23.0832 38.3069 23.1963C37.761 23.3095 37.2761 23.2885 36.8523 23.1334C36.4284 22.9782 36.0795 22.7296 35.8055 22.3875C35.535 22.0446 35.3529 21.6472 35.2592 21.1951ZM36.9575 20.2556L37.0743 20.8189C37.1154 21.0171 37.2048 21.2035 37.3425 21.378C37.483 21.5484 37.6906 21.6051 37.9653 21.5481C38.2539 21.4883 38.4239 21.3552 38.4754 21.1486C38.5304 20.9414 38.5363 20.7335 38.493 20.5248L38.3762 19.9615C38.333 19.7529 38.2477 19.5602 38.1204 19.3835C37.9932 19.2068 37.78 19.1495 37.4809 19.2114C37.2062 19.2684 37.0387 19.4047 36.9782 19.6203C36.9212 19.8352 36.9143 20.047 36.9575 20.2556ZM28.4008 16.2411L28.284 15.6778C28.1889 15.2188 28.2007 14.7775 28.3197 14.3539C28.4421 13.9296 28.6673 13.5638 28.9952 13.2565C29.3232 12.9491 29.7532 12.7403 30.2852 12.6301C30.8381 12.5155 31.3261 12.534 31.7492 12.6857C32.1758 12.8366 32.5261 13.0831 32.8001 13.4253C33.0741 13.7674 33.2587 14.168 33.3538 14.627L33.4706 15.1903C33.5657 15.6493 33.5534 16.0888 33.4338 16.5089C33.3176 16.9283 33.0935 17.2903 32.7613 17.5948C32.4291 17.8994 31.9901 18.1083 31.4441 18.2215C30.8982 18.3346 30.4137 18.3154 29.9906 18.1637C29.5675 18.012 29.2193 17.7669 28.946 17.4282C28.6762 17.0888 28.4944 16.6931 28.4008 16.2411ZM30.12 15.2972L30.2367 15.8606C30.28 16.0692 30.3697 16.2573 30.506 16.4249C30.6423 16.5925 30.8426 16.6489 31.1068 16.5941C31.3955 16.5343 31.5655 16.4011 31.617 16.1946C31.672 15.9874 31.6778 15.7795 31.6346 15.5708L31.5178 15.0075C31.4746 14.7989 31.3893 14.6062 31.262 14.4295C31.1347 14.2528 30.9216 14.1954 30.6225 14.2574C30.3478 14.3143 30.1844 14.4534 30.1323 14.6745C30.083 14.8915 30.0789 15.099 30.12 15.2972ZM30.9696 24.1732L36.0995 11.9689L37.5808 11.6619L32.4509 23.8661L30.9696 24.1732Z" fill="white"/>
<path d="M75.0237 6.32689C74.9304 6.39366 74.6199 6.62039 74.5363 6.68895L72.7917 8.0121C72.7725 8.02585 72.7472 8.031 72.7266 8.01971L67.0706 5.75821C66.8968 5.68344 66.6968 5.70537 66.5487 5.81141L65.8989 6.27682C65.7454 6.38679 65.8081 6.58446 65.9696 6.69409L70.272 9.79944C70.3124 9.82684 70.3164 9.88461 70.278 9.9121L66.9589 12.3673C66.8897 12.4212 66.7993 12.4339 66.7144 12.4081L64.777 11.8461C64.6148 11.7933 64.4408 11.8226 64.3064 11.9188L63.8458 12.2487C63.769 12.3037 63.7723 12.4183 63.8503 12.4751L65.8049 14.0516C65.924 14.131 66.0122 14.2541 66.049 14.3924L66.9123 16.7504C66.941 16.8426 67.0485 16.8826 67.1252 16.8276L67.5831 16.4996C67.7175 16.4034 67.7992 16.2453 67.8035 16.0775L67.8999 14.0286C67.9027 13.9399 67.9467 13.8564 68.0173 13.8102L71.4094 11.4976C71.4499 11.473 71.5012 11.4925 71.5142 11.5396L73.0713 16.6155C73.1231 16.8036 73.2901 16.9267 73.4436 16.8167L74.0934 16.3513C74.2442 16.2433 74.3266 16.063 74.3118 15.8743L73.9962 9.79226C73.9948 9.76723 74.0051 9.74685 74.0243 9.73311L75.8386 8.50732C75.9332 8.44824 76.2451 8.22921 76.3383 8.16244C77.5529 7.2925 78.0274 6.33316 77.6644 5.82631C77.3013 5.31946 76.241 5.45499 75.0237 6.32689Z" fill="white"/>
<path fill-rule="evenodd" clip-rule="evenodd" d="M79.7614 38.6445C80.1541 38.6445 80.5207 38.6535 80.8623 38.6713C81.1381 38.6856 81.3501 38.9208 81.3357 39.1965C81.3214 39.4723 81.0862 39.6842 80.8105 39.6699C80.4882 39.6532 80.139 39.6445 79.7614 39.6445V38.6445ZM82.4398 39.332C82.5153 39.0663 82.7919 38.9122 83.0575 38.9877C84.1257 39.2915 84.8395 39.8524 84.9107 40.7446C84.9326 41.0198 84.7273 41.2608 84.452 41.2827C84.1768 41.3047 83.9358 41.0994 83.9138 40.8241C83.8926 40.5583 83.7008 40.2103 82.784 39.9496C82.5184 39.8741 82.3643 39.5976 82.4398 39.332ZM83.8929 42.2981C84.1112 42.4673 84.1509 42.7814 83.9817 42.9997C83.5822 43.515 83.0709 44.0544 82.4894 44.6043C82.2888 44.794 81.9723 44.7852 81.7826 44.5846C81.5929 44.3839 81.6017 44.0675 81.8023 43.8777C82.3627 43.3478 82.8345 42.8473 83.1914 42.3869C83.3606 42.1687 83.6747 42.1289 83.8929 42.2981ZM80.9353 45.3245C81.1117 45.537 81.0824 45.8522 80.8699 46.0286C80.3367 46.471 79.7739 46.9183 79.1979 47.3647C78.9796 47.5338 78.6655 47.4939 78.4964 47.2756C78.3272 47.0574 78.3671 46.7433 78.5854 46.5742C79.1553 46.1326 79.709 45.6924 80.2313 45.259C80.4438 45.0827 80.759 45.112 80.9353 45.3245ZM77.6009 47.9544C77.7663 48.1755 77.7212 48.4889 77.5001 48.6543C77.0225 49.0116 76.5451 49.3655 76.0776 49.7122C75.9825 49.7827 75.8879 49.8528 75.7938 49.9226C75.572 50.0871 75.2588 50.0407 75.0943 49.8189C74.9298 49.5971 74.9762 49.2839 75.198 49.1194C75.2924 49.0495 75.3871 48.9793 75.4821 48.9088C75.9498 48.5621 76.4252 48.2096 76.901 47.8536C77.1221 47.6882 77.4355 47.7333 77.6009 47.9544ZM74.1935 50.4904C74.3603 50.7105 74.3171 51.0241 74.097 51.1909C73.4923 51.6493 72.9345 52.0826 72.4466 52.483C72.2331 52.6582 71.9181 52.6272 71.7429 52.4137C71.5677 52.2002 71.5987 51.8852 71.8122 51.71C72.3143 51.298 72.8835 50.8559 73.4929 50.394C73.713 50.2271 74.0266 50.2703 74.1935 50.4904ZM70.8972 53.1616C71.1054 53.3431 71.127 53.6589 70.9456 53.8671C70.7941 54.0408 70.6954 54.1804 70.6392 54.2867C70.5944 54.3716 70.591 54.4081 70.5905 54.4081C70.5904 54.4081 70.5906 54.4039 70.5896 54.396L69.5968 54.5161C69.5654 54.2562 69.6528 54.0131 69.7551 53.8194C69.8613 53.6185 70.0142 53.4136 70.1918 53.2099C70.3732 53.0018 70.6891 52.9801 70.8972 53.1616Z" fill="white"/>
<defs>
<linearGradient id="paint0_linear_647_6877" x1="44.7109" y1="60.8115" x2="44.7109" y2="28.5079" gradientUnits="userSpaceOnUse">
<stop stop-color="#F97372"/>
<stop offset="1" stop-color="#F6A681"/>
</linearGradient>
<linearGradient id="paint1_linear_647_6877" x1="14.0859" y1="44.6292" x2="30.2908" y2="45.9616" gradientUnits="userSpaceOnUse">
<stop stop-color="#0C9200"/>
<stop offset="0.932856" stop-color="#59C801"/>
</linearGradient>
<linearGradient id="paint2_linear_647_6877" x1="7.67529" y1="68.4268" x2="82.4383" y2="68.4268" gradientUnits="userSpaceOnUse">
<stop stop-color="#F97372"/>
<stop offset="1" stop-color="#F6A681"/>
</linearGradient>
<linearGradient id="paint3_linear_647_6877" x1="50.4443" y1="35.5406" x2="72.1539" y2="35.5406" gradientUnits="userSpaceOnUse">
<stop stop-color="#F97372"/>
<stop offset="1" stop-color="#F6A681"/>
</linearGradient>
</defs>
</svg>
