<svg width="36" height="10" viewBox="0 0 36 10" fill="none" xmlns="http://www.w3.org/2000/svg">
<g clip-path="url(#clip0_375_267)">
<path fill-rule="evenodd" clip-rule="evenodd" d="M10.7496 9.02398C10.4939 9.07457 10.2296 9.10109 9.959 9.10109C9.6885 9.10109 9.4241 9.07457 9.1684 9.02398L9.3625 8.043C9.5546 8.081 9.754 8.10109 9.959 8.10109C10.1641 8.10109 10.3634 8.081 10.5555 8.043L10.7496 9.02398ZM7.7083 8.41878L8.2646 7.58782C7.9315 7.36479 7.6445 7.07776 7.4214 6.74463L6.5905 7.30095C6.8862 7.7427 7.2665 8.12304 7.7083 8.41878ZM5.9853 5.8408L6.9662 5.64673C6.9282 5.45461 6.9082 5.25526 6.9082 5.05022V5.02512H5.9082V5.05022C5.9082 5.32076 5.9347 5.58511 5.9853 5.8408ZM5.9082 4.9749H6.9082V4.94979C6.9082 4.74476 6.9282 4.54541 6.9662 4.35329L5.9853 4.15922C5.9347 4.41491 5.9082 4.67925 5.9082 4.94979V4.9749ZM6.5905 2.69907L7.4214 3.25539C7.6445 2.92225 7.9315 2.63523 8.2646 2.4122L7.7083 1.58123C7.2665 1.87698 6.8862 2.25731 6.5905 2.69907ZM9.1684 0.97603C9.4241 0.925447 9.6885 0.898926 9.959 0.898926C10.2296 0.898926 10.4939 0.925447 10.7496 0.97603L10.5555 1.95702C10.3634 1.91901 10.1641 1.89893 9.959 1.89893C9.754 1.89893 9.5546 1.91901 9.3625 1.95702L9.1684 0.97603ZM12.2097 1.58123L11.6534 2.4122C11.9866 2.63523 12.2736 2.92225 12.4966 3.25539L13.3276 2.69907C13.0318 2.25731 12.6515 1.87698 12.2097 1.58123ZM13.9328 4.15922L12.9518 4.35329C12.9898 4.54541 13.0099 4.74476 13.0099 4.94979V4.9749H14.0099V4.94979C14.0099 4.67925 13.9834 4.41491 13.9328 4.15922ZM14.0099 5.02512H13.0099V5.05022C13.0099 5.25526 12.9898 5.45461 12.9518 5.64673L13.9328 5.8408C13.9834 5.58511 14.0099 5.32076 14.0099 5.05022V5.02512ZM13.3276 7.30095L12.4966 6.74463C12.2736 7.07776 11.9866 7.36479 11.6534 7.58781L12.2097 8.41878C12.6515 8.12304 13.0318 7.7427 13.3276 7.30095Z" fill="#39304B"/>
<path fill-rule="evenodd" clip-rule="evenodd" d="M26.9886 9.02398C26.7329 9.07457 26.4686 9.10109 26.198 9.10109C25.9275 9.10109 25.6631 9.07457 25.4074 9.02398L25.6015 8.043C25.7936 8.081 25.993 8.10109 26.198 8.10109C26.4031 8.10109 26.6024 8.081 26.7945 8.043L26.9886 9.02398ZM23.9473 8.41878L24.5036 7.58782C24.1705 7.36479 23.8835 7.07776 23.6604 6.74463L22.8295 7.30095C23.1252 7.7427 23.5055 8.12304 23.9473 8.41878ZM22.2243 5.8408L23.2052 5.64673C23.1672 5.45461 23.1472 5.25526 23.1472 5.05022V5.02512H22.1472V5.05022C22.1472 5.32076 22.1737 5.58511 22.2243 5.8408ZM22.1472 4.9749H23.1472V4.94979C23.1472 4.74476 23.1672 4.54541 23.2052 4.35329L22.2243 4.15922C22.1737 4.41491 22.1472 4.67925 22.1472 4.94979V4.9749ZM22.8295 2.69907L23.6604 3.25539C23.8835 2.92225 24.1705 2.63523 24.5036 2.4122L23.9473 1.58123C23.5055 1.87698 23.1252 2.25731 22.8295 2.69907ZM25.4074 0.97603C25.6631 0.925447 25.9275 0.898926 26.198 0.898926C26.4686 0.898926 26.7329 0.925447 26.9886 0.97603L26.7945 1.95702C26.6024 1.91901 26.4031 1.89893 26.198 1.89893C25.993 1.89893 25.7936 1.91901 25.6015 1.95702L25.4074 0.97603ZM28.4487 1.58123L27.8924 2.4122C28.2256 2.63523 28.5126 2.92225 28.7356 3.25539L29.5666 2.69907C29.2708 2.25731 28.8905 1.87698 28.4487 1.58123ZM30.1718 4.15922L29.1908 4.35329C29.2288 4.54541 29.2489 4.74476 29.2489 4.94979V4.9749H30.2489V4.94979C30.2489 4.67925 30.2224 4.41491 30.1718 4.15922ZM30.2489 5.02512H29.2489V5.05022C29.2489 5.25526 29.2288 5.45461 29.1908 5.64673L30.1718 5.8408C30.2224 5.58511 30.2489 5.32076 30.2489 5.05022V5.02512ZM29.5666 7.30095L28.7356 6.74463C28.5126 7.07776 28.2256 7.36479 27.8924 7.58781L28.4487 8.41878C28.8905 8.12304 29.2708 7.7427 29.5666 7.30095Z" fill="#39304B"/>
<rect x="15" y="4.34375" width="6.25" height="1.3125" rx="0.65625" fill="#39304B"/>
<rect x="31.0625" y="4.34375" width="4.03931" height="1.3125" rx="0.65625" fill="#39304B"/>
<rect x="0.878418" y="4.34375" width="4.03931" height="1.3125" rx="0.65625" fill="#39304B"/>
<rect x="31.0925" y="1.20142" width="5.5" height="1.3125" rx="0.65625" transform="rotate(40 31.0925 1.20142)" fill="#39304B"/>
<rect width="5.5" height="1.3125" rx="0.65625" transform="matrix(-0.766044 0.642788 0.642788 0.766044 34.4622 4.25781)" fill="#39304B"/>
</g>
<defs>
<clipPath id="clip0_375_267">
<rect width="36" height="10" fill="white"/>
</clipPath>
</defs>
</svg>
