<svg width="45" height="30" viewBox="0 0 45 30" fill="none" xmlns="http://www.w3.org/2000/svg">
<path d="M22.9311 13.1486C22.7259 13.1486 22.0377 13.1545 21.8445 13.1663L17.9267 13.2668C17.8844 13.2668 17.8422 13.249 17.8241 13.2136L11.9503 4.60518C11.7752 4.3334 11.4613 4.16797 11.1353 4.16797H9.70462C9.36656 4.16797 9.25186 4.49883 9.37259 4.80607L12.397 13.2431C12.4272 13.3199 12.3729 13.4026 12.2883 13.4026L4.89936 13.509C4.7424 13.5149 4.59752 13.444 4.50093 13.3258L2.26733 10.6671C2.08623 10.4367 1.8025 10.3067 1.5067 10.3067H0.492526C0.323497 10.3067 0.208798 10.4662 0.263129 10.6198L1.46444 14.6788C1.55499 14.9034 1.55499 15.1574 1.46444 15.3819L0.263129 19.4409C0.208798 19.5945 0.323497 19.7541 0.492526 19.7541H1.50066C1.79647 19.7541 2.08019 19.6182 2.2613 19.3937L4.53715 16.6936C4.63374 16.5754 4.78466 16.5045 4.93558 16.5104L12.2823 16.6699C12.3668 16.6758 12.4212 16.7526 12.391 16.8295L9.36656 25.2724C9.24582 25.5797 9.36052 25.9105 9.69858 25.9105H11.1293C11.4613 25.9105 11.7692 25.7451 11.9443 25.4733L17.8241 16.8708C17.8482 16.8354 17.8844 16.8176 17.9267 16.8176L21.8445 16.9181C22.0437 16.9299 22.7259 16.9358 22.9311 16.9358C25.6054 16.9358 27.2957 16.0909 27.2957 15.0452C27.2957 13.9994 25.6115 13.1486 22.9311 13.1486Z" fill="#271C3A"/>
<path fill-rule="evenodd" clip-rule="evenodd" d="M31.2959 1.99183V0.12793H33.1894V1.99183H31.2959ZM31.2959 9.44742V5.71963H33.1894V9.44742H31.2959ZM31.2959 16.903V13.1752H33.1894V16.903H31.2959ZM31.2959 24.3586V20.6308H33.1894V24.3586H31.2959ZM31.2959 29.9503V28.0864H33.1894V29.9503H31.2959Z" fill="#271C3A"/>
<path d="M37.1895 1.51953H45.0001V4.35372H37.1895V1.51953Z" fill="#271C3A"/>
<path d="M37.1895 6.25293H45.0001V7.90973H37.1895V6.25293Z" fill="#271C3A"/>
<path d="M37.1895 14.543H45.0001V16.1998H37.1895V14.543Z" fill="#271C3A"/>
<path d="M37.1895 26.9023H45.0001V28.5591H37.1895V26.9023Z" fill="#271C3A"/>
<path d="M37.1895 9.92188H45.0001V12.6438H37.1895V9.92188Z" fill="#271C3A"/>
<path d="M37.1895 18.0986H45.0001V20.8205H37.1895V18.0986Z" fill="#271C3A"/>
<path d="M37.1895 22.7559H45.0001V25.4777H37.1895V22.7559Z" fill="#271C3A"/>
</svg>
