<svg width="37" height="18" viewBox="0 0 37 18" fill="none" xmlns="http://www.w3.org/2000/svg">
<path fill-rule="evenodd" clip-rule="evenodd" d="M0.901489 0.930603H36.7045V17.7147H0.901489V0.930603ZM1.8419 1.87102V16.7743H35.7641V1.87102H1.8419Z" fill="url(#paint0_linear_357_344)"/>
<path d="M19.0747 8.22458C18.9779 8.22458 18.6536 8.22751 18.5626 8.23338L16.7164 8.28326C16.6965 8.28326 16.6766 8.27446 16.668 8.25685L13.9001 3.98143C13.8176 3.84645 13.6697 3.76428 13.5161 3.76428H12.8419C12.6826 3.76428 12.6285 3.92861 12.6854 4.0812L14.1106 8.27153C14.1249 8.30967 14.0993 8.35075 14.0594 8.35075L10.5775 8.40357C10.5035 8.40651 10.4353 8.3713 10.3898 8.31261L9.33721 6.99213C9.25187 6.87768 9.11817 6.81313 8.97878 6.81313H8.50087C8.42122 6.81313 8.36717 6.89236 8.39277 6.96865L8.95887 8.98459C9.00154 9.09609 9.00154 9.22227 8.95887 9.33378L8.39277 11.3497C8.36717 11.426 8.42122 11.5052 8.50087 11.5052H8.97593C9.11533 11.5052 9.24903 11.4377 9.33437 11.3262L10.4068 9.98522C10.4523 9.92653 10.5235 9.89132 10.5946 9.89425L14.0566 9.97348C14.0964 9.97641 14.122 10.0146 14.1078 10.0527L12.6826 14.246C12.6257 14.3986 12.6797 14.5629 12.839 14.5629H13.5132C13.6697 14.5629 13.8148 14.4807 13.8973 14.3457L16.668 10.0732C16.6794 10.0556 16.6965 10.0468 16.7164 10.0468L18.5626 10.0967C18.6565 10.1026 18.9779 10.1055 19.0747 10.1055C20.3349 10.1055 21.1314 9.68591 21.1314 9.16652C21.1314 8.64713 20.3377 8.22458 19.0747 8.22458Z" fill="url(#paint1_linear_357_344)"/>
<path fill-rule="evenodd" clip-rule="evenodd" d="M25.6547 2.00436V1.07864H26.5951V2.00436H25.6547ZM25.6547 5.70724V3.8558H26.5951V5.70724H25.6547ZM25.6547 9.41012V7.55868H26.5951V9.41012H25.6547ZM25.6547 13.113V11.2616H26.5951V13.113H25.6547ZM25.6547 15.8902V14.9644H26.5951V15.8902H25.6547Z" fill="#F79A7E"/>
<path d="M30.4493 1.99069H34.3285V3.39831H30.4493V1.99069Z" fill="#F7A380"/>
<path d="M30.4493 4.34171H34.3285V5.16457H30.4493V4.34171Z" fill="#F7A380"/>
<path d="M30.4493 8.45883H34.3285V9.28169H30.4493V8.45883Z" fill="#F7A380"/>
<path d="M30.4493 14.5971H34.3285V15.4199H30.4493V14.5971Z" fill="#F7A380"/>
<path d="M30.4493 6.16376H34.3285V7.5156H30.4493V6.16376Z" fill="#F7A380"/>
<path d="M30.4493 10.2249H34.3285V11.5768H30.4493V10.2249Z" fill="#F7A380"/>
<path d="M30.4493 12.5378H34.3285V13.8897H30.4493V12.5378Z" fill="#F7A380"/>
<defs>
<linearGradient id="paint0_linear_357_344" x1="0.90149" y1="9.32266" x2="36.7045" y2="9.32266" gradientUnits="userSpaceOnUse">
<stop stop-color="#F97372"/>
<stop offset="1" stop-color="#F6A681"/>
</linearGradient>
<linearGradient id="paint1_linear_357_344" x1="8.38635" y1="9.16358" x2="21.1314" y2="9.16358" gradientUnits="userSpaceOnUse">
<stop stop-color="#F97372"/>
<stop offset="1" stop-color="#F6A681"/>
</linearGradient>
</defs>
</svg>
