<svg width="1281" height="582" viewBox="0 0 1281 582" fill="none" xmlns="http://www.w3.org/2000/svg">
<mask id="mask0_1094_1076" style="mask-type:alpha" maskUnits="userSpaceOnUse" x="0" y="246" width="1281" height="336">
<rect x="0.5" y="246.424" width="1280" height="335.576" fill="#D9D9D9"/>
</mask>
<g mask="url(#mask0_1094_1076)">
<path opacity="0.11" d="M1392.48 454.275C1309.52 471.516 1095.13 499.408 914.067 434.88C610.208 326.591 387.162 337.904 196.441 386.392C43.8651 425.182 -42.7671 445.655 -67.0112 451.043" stroke="white" stroke-width="3"/>
<path d="M219.949 463.364C39.5741 510.825 -6.22894 435.159 -58.3134 400.02L-48.2947 576.975C274.616 652.943 893.259 761.999 784.543 590.482C648.648 376.085 393.949 417.58 219.949 463.364Z" fill="white" fill-opacity="0.03"/>
</g>
<path opacity="0.1" d="M1169.21 37.7016C1168.39 37.7016 1165.67 37.7263 1164.9 37.7756L1149.38 38.1951C1149.21 38.1951 1149.04 38.1211 1148.97 37.973L1125.7 2.02314C1125 0.888136 1123.76 0.197266 1122.47 0.197266H1116.8C1115.46 0.197266 1115 1.57901 1115.48 2.86205L1127.47 38.0964C1127.59 38.4172 1127.37 38.7626 1127.04 38.7626L1097.76 39.2067C1097.14 39.2314 1096.56 38.9353 1096.18 38.4418L1087.33 27.3386C1086.61 26.3763 1085.49 25.8335 1084.31 25.8335H1080.3C1079.63 25.8335 1079.17 26.4997 1079.39 27.1412L1084.15 44.0922C1084.51 45.0298 1084.51 46.0907 1084.15 47.0284L1079.39 63.9793C1079.17 64.6209 1079.63 65.287 1080.3 65.287H1084.29C1085.46 65.287 1086.59 64.7196 1087.3 63.7819L1096.32 52.506C1096.71 52.0125 1097.3 51.7164 1097.9 51.7411L1127.01 52.4073C1127.35 52.4319 1127.56 52.7527 1127.44 53.0735L1115.46 88.3325C1114.98 89.6155 1115.43 90.9973 1116.77 90.9973H1122.44C1123.76 90.9973 1124.98 90.3064 1125.67 89.1714L1148.97 53.2462C1149.07 53.0981 1149.21 53.0241 1149.38 53.0241L1164.9 53.4436C1165.69 53.4929 1168.39 53.5176 1169.21 53.5176C1179.8 53.5176 1186.5 49.9892 1186.5 45.6219C1186.5 41.2547 1179.83 37.7016 1169.21 37.7016Z" fill="white"/>
<path opacity="0.1" d="M649.463 328.498C649.083 328.498 647.809 328.51 647.451 328.533L640.194 328.729C640.116 328.729 640.038 328.694 640.004 328.625L629.125 311.82C628.8 311.29 628.219 310.967 627.615 310.967H624.965C624.339 310.967 624.127 311.613 624.35 312.212L629.952 328.683C630.008 328.833 629.907 328.994 629.751 328.994L616.065 329.202C615.774 329.213 615.506 329.075 615.327 328.844L611.19 323.654C610.855 323.204 610.329 322.95 609.781 322.95H607.903C607.59 322.95 607.377 323.262 607.478 323.562L609.703 331.485C609.871 331.924 609.871 332.42 609.703 332.858L607.478 340.782C607.377 341.082 607.59 341.393 607.903 341.393H609.77C610.318 341.393 610.843 341.128 611.179 340.689L615.394 335.418C615.573 335.188 615.853 335.049 616.132 335.061L629.74 335.372C629.896 335.384 629.997 335.534 629.941 335.684L624.339 352.165C624.116 352.765 624.328 353.411 624.954 353.411H627.604C628.219 353.411 628.789 353.088 629.114 352.558L640.004 335.764C640.049 335.695 640.116 335.661 640.194 335.661L647.451 335.857C647.82 335.88 649.083 335.891 649.463 335.891C654.417 335.891 657.547 334.242 657.547 332.2C657.547 330.159 654.428 328.498 649.463 328.498Z" fill="white"/>
<path opacity="0.1" d="M145.983 37.3866C145.859 37.3866 145.44 37.3904 145.322 37.398L142.937 37.4624C142.911 37.4624 142.886 37.4511 142.875 37.4283L139.299 31.9055C139.193 31.7311 139.002 31.625 138.803 31.625H137.932C137.726 31.625 137.657 31.8373 137.73 32.0344L139.571 37.4473C139.59 37.4966 139.556 37.5496 139.505 37.5496L135.007 37.6179C134.912 37.6216 134.823 37.5762 134.765 37.5004L133.405 35.7946C133.295 35.6468 133.122 35.5634 132.942 35.5634H132.325C132.222 35.5634 132.152 35.6657 132.185 35.7643L132.916 38.3684C132.971 38.5124 132.971 38.6754 132.916 38.8195L132.185 41.4236C132.152 41.5221 132.222 41.6245 132.325 41.6245H132.938C133.118 41.6245 133.291 41.5373 133.401 41.3932L134.787 39.661C134.846 39.5852 134.937 39.5397 135.029 39.5435L139.501 39.6458C139.553 39.6496 139.586 39.6989 139.567 39.7481L137.726 45.1648C137.653 45.3619 137.723 45.5742 137.929 45.5742H138.799C139.002 45.5742 139.189 45.4681 139.296 45.2937L142.875 39.7747C142.889 39.7519 142.911 39.7406 142.937 39.7406L145.322 39.805C145.443 39.8126 145.859 39.8164 145.983 39.8164C147.611 39.8164 148.64 39.2743 148.64 38.6034C148.64 37.9325 147.615 37.3866 145.983 37.3866Z" fill="white"/>
</svg>
